<mxfile host="app.diagrams.net" modified="2020-03-13T12:45:47.496Z" agent="Mozilla/5.0 (Windows NT 10.0; Win64; x64) AppleWebKit/537.36 (KHTML, like Gecko) Chrome/79.0.3945.130 Safari/537.36" etag="ZIsuCtYZdNkg3yYkpJuO" version="12.8.4" type="github">
  <diagram name="Page-1" id="58cdce13-f638-feb5-8d6f-7d28b1aa9fa0">
    <mxGraphModel dx="1483" dy="1561" grid="1" gridSize="10" guides="1" tooltips="1" connect="1" arrows="1" fold="1" page="1" pageScale="1" pageWidth="1100" pageHeight="850" background="#ffffff" math="0" shadow="0">
      <root>
        <mxCell id="0" />
        <mxCell id="1" parent="0" />
        <mxCell id="AGjHTBhYZpKcEaoJQLyZ-3" value="" style="group" vertex="1" connectable="0" parent="1">
          <mxGeometry x="30" y="-78.13" width="1220" height="858.13" as="geometry" />
        </mxCell>
        <mxCell id="AGjHTBhYZpKcEaoJQLyZ-2" value="" style="group" vertex="1" connectable="0" parent="AGjHTBhYZpKcEaoJQLyZ-3">
          <mxGeometry width="1220" height="858.13" as="geometry" />
        </mxCell>
        <mxCell id="da2mFbJtw7ZfNC7TPq2f-32" style="edgeStyle=elbowEdgeStyle;html=1;labelBackgroundColor=none;endArrow=open;endSize=8;strokeColor=#ff0000;fontFamily=Verdana;fontSize=12;align=left;entryX=0.5;entryY=1;" parent="AGjHTBhYZpKcEaoJQLyZ-2" edge="1" treatAsSingle="0">
          <mxGeometry relative="1" as="geometry">
            <mxPoint x="345" y="358.13" as="sourcePoint" />
            <mxPoint x="345.42999999999984" y="228.10503355704702" as="targetPoint" />
          </mxGeometry>
        </mxCell>
        <mxCell id="da2mFbJtw7ZfNC7TPq2f-39" value="external" style="text;html=1;align=center;verticalAlign=middle;resizable=0;points=[];labelBackgroundColor=#ffffff;" parent="da2mFbJtw7ZfNC7TPq2f-32" vertex="1" connectable="0">
          <mxGeometry x="-0.4486" y="-6" relative="1" as="geometry">
            <mxPoint as="offset" />
          </mxGeometry>
        </mxCell>
        <mxCell id="da2mFbJtw7ZfNC7TPq2f-228" value="" style="group" parent="AGjHTBhYZpKcEaoJQLyZ-2" vertex="1" connectable="0" treatAsSingle="0">
          <mxGeometry y="68.13" width="1220" height="790" as="geometry" />
        </mxCell>
        <mxCell id="da2mFbJtw7ZfNC7TPq2f-1" value="" style="group" parent="da2mFbJtw7ZfNC7TPq2f-228" vertex="1" connectable="0" treatAsSingle="0">
          <mxGeometry width="1220" height="790" as="geometry" />
        </mxCell>
        <mxCell id="2a3bc250acf0617d-8" value="Ai_Platform" style="shape=umlFrame;whiteSpace=wrap;html=1;rounded=1;shadow=0;comic=0;labelBackgroundColor=none;strokeWidth=1;fontFamily=Verdana;fontSize=12;align=center;width=160;height=35;fillColor=#99CCFF;strokeColor=#6c8ebf;gradientColor=#ffffff;" parent="da2mFbJtw7ZfNC7TPq2f-1" vertex="1">
          <mxGeometry y="-140" width="1220" height="930" as="geometry" />
        </mxCell>
        <mxCell id="382b91b5511bd0f7-5" value="Search/Index Microservice" style="rounded=1;whiteSpace=wrap;html=1;arcSize=24;fillColor=#FFD296;strokeColor=#d6b656;shadow=0;comic=0;labelBackgroundColor=none;fontFamily=Verdana;fontSize=12;align=center;gradientColor=#ffd966;gradientDirection=west;" parent="da2mFbJtw7ZfNC7TPq2f-1" vertex="1">
          <mxGeometry x="90" y="291.6107382550336" width="120" height="63.6241610738255" as="geometry" />
        </mxCell>
        <mxCell id="da2mFbJtw7ZfNC7TPq2f-45" style="edgeStyle=orthogonalEdgeStyle;rounded=0;orthogonalLoop=1;jettySize=auto;html=1;exitX=0.127;exitY=0.094;exitDx=0;exitDy=0;entryX=0.5;entryY=1;entryDx=0;entryDy=0;strokeColor=#FF3333;exitPerimeter=0;" parent="da2mFbJtw7ZfNC7TPq2f-1" source="382b91b5511bd0f7-9" target="da2mFbJtw7ZfNC7TPq2f-42" edge="1">
          <mxGeometry relative="1" as="geometry" />
        </mxCell>
        <mxCell id="382b91b5511bd0f7-9" value="Data Pipeline Service" style="rounded=1;whiteSpace=wrap;html=1;arcSize=24;fillColor=#FFD296;strokeColor=#d6b656;shadow=0;comic=0;labelBackgroundColor=none;fontFamily=Verdana;fontSize=12;fontColor=#000000;align=center;gradientColor=#ffd966;gradientDirection=west;" parent="da2mFbJtw7ZfNC7TPq2f-1" vertex="1">
          <mxGeometry x="410" y="291.6107382550336" width="120" height="63.6241610738255" as="geometry" />
        </mxCell>
        <mxCell id="382b91b5511bd0f7-10" value="Data Extraction&lt;br&gt;Service" style="rounded=1;whiteSpace=wrap;html=1;arcSize=24;fillColor=#FFD296;strokeColor=#d6b656;shadow=0;comic=0;labelBackgroundColor=none;fontFamily=Verdana;fontSize=12;align=center;gradientColor=#ffd966;gradientDirection=west;" parent="da2mFbJtw7ZfNC7TPq2f-1" vertex="1">
          <mxGeometry x="250" y="291.6107382550336" width="120" height="63.6241610738255" as="geometry" />
        </mxCell>
        <mxCell id="2a3bc250acf0617d-7" value="Process Flow" style="swimlane;whiteSpace=wrap;html=1;rounded=1;shadow=1;comic=0;labelBackgroundColor=none;strokeWidth=1;fontFamily=Verdana;fontSize=12;align=center;gradientColor=#ffd966;fillColor=#fff2cc;strokeColor=#d6b656;gradientDirection=north;swimlaneFillColor=none;glass=0;" parent="da2mFbJtw7ZfNC7TPq2f-1" vertex="1" treatAsSingle="0">
          <mxGeometry x="30" y="487.79" width="1160" height="225.15" as="geometry" />
        </mxCell>
        <mxCell id="2a3bc250acf0617d-3" value="" style="ellipse;html=1;shape=startState;fillColor=#000000;strokeColor=#ff0000;rounded=1;shadow=0;comic=0;labelBackgroundColor=none;fontFamily=Verdana;fontSize=12;fontColor=#000000;align=center;direction=south;" parent="2a3bc250acf0617d-7" vertex="1">
          <mxGeometry x="11" y="84.83221476510069" width="30" height="31.812080536912752" as="geometry" />
        </mxCell>
        <mxCell id="2a3bc250acf0617d-12" style="edgeStyle=orthogonalEdgeStyle;html=1;exitX=0.25;exitY=0;labelBackgroundColor=none;endArrow=open;endSize=8;strokeColor=#ff0000;fontFamily=Verdana;fontSize=12;align=left;" parent="da2mFbJtw7ZfNC7TPq2f-1" source="382b91b5511bd0f7-5" edge="1">
          <mxGeometry relative="1" as="geometry">
            <mxPoint x="120" y="162.3287671232877" as="targetPoint" />
          </mxGeometry>
        </mxCell>
        <mxCell id="2a3bc250acf0617d-13" style="edgeStyle=orthogonalEdgeStyle;html=1;exitX=1;exitY=0.5;entryX=0;entryY=0.5;labelBackgroundColor=none;endArrow=open;endSize=8;strokeColor=#ff0000;fontFamily=Verdana;fontSize=12;align=left;" parent="da2mFbJtw7ZfNC7TPq2f-1" source="382b91b5511bd0f7-5" target="382b91b5511bd0f7-10" edge="1">
          <mxGeometry relative="1" as="geometry" />
        </mxCell>
        <mxCell id="2a3bc250acf0617d-15" style="edgeStyle=orthogonalEdgeStyle;html=1;exitX=1;exitY=0.25;entryX=0;entryY=0.25;labelBackgroundColor=none;endArrow=open;endSize=8;strokeColor=#ff0000;fontFamily=Verdana;fontSize=12;align=left;" parent="da2mFbJtw7ZfNC7TPq2f-1" edge="1">
          <mxGeometry relative="1" as="geometry">
            <mxPoint x="370" y="322.6674634549967" as="sourcePoint" />
            <mxPoint x="410" y="322.6674634549967" as="targetPoint" />
          </mxGeometry>
        </mxCell>
        <mxCell id="3cde6dad864a17aa-6" style="edgeStyle=elbowEdgeStyle;html=1;labelBackgroundColor=none;endArrow=open;endSize=8;strokeColor=#ff0000;fontFamily=Verdana;fontSize=12;align=left;entryX=0.158;entryY=-0.004;entryDx=0;entryDy=0;entryPerimeter=0;" parent="da2mFbJtw7ZfNC7TPq2f-1" edge="1">
          <mxGeometry relative="1" as="geometry">
            <mxPoint x="170.71428571428578" y="355.23489932885906" as="sourcePoint" />
            <mxPoint x="170.22000000000003" y="486.8865232876712" as="targetPoint" />
          </mxGeometry>
        </mxCell>
        <mxCell id="3cde6dad864a17aa-7" style="edgeStyle=elbowEdgeStyle;html=1;labelBackgroundColor=none;endArrow=open;endSize=8;strokeColor=#ff0000;fontFamily=Verdana;fontSize=12;align=left;entryX=0.5;entryY=1;" parent="da2mFbJtw7ZfNC7TPq2f-1" edge="1">
          <mxGeometry relative="1" as="geometry">
            <mxPoint x="127.85714285714289" y="487.78712328767125" as="sourcePoint" />
            <mxPoint x="128" y="355.23489932885906" as="targetPoint" />
          </mxGeometry>
        </mxCell>
        <mxCell id="da2mFbJtw7ZfNC7TPq2f-12" style="edgeStyle=orthogonalEdgeStyle;rounded=0;orthogonalLoop=1;jettySize=auto;html=1;exitX=1;exitY=0.5;exitDx=0;exitDy=0;entryX=0;entryY=0.5;entryDx=0;entryDy=0;strokeColor=#FF3333;" parent="da2mFbJtw7ZfNC7TPq2f-1" source="3cde6dad864a17aa-2" target="da2mFbJtw7ZfNC7TPq2f-3" edge="1">
          <mxGeometry relative="1" as="geometry" />
        </mxCell>
        <mxCell id="3cde6dad864a17aa-2" value="Create New Data PipeLine" style="rounded=1;whiteSpace=wrap;html=1;arcSize=24;fillColor=#FFD296;strokeColor=#d6b656;shadow=0;comic=0;labelBackgroundColor=none;fontFamily=Verdana;fontSize=12;align=center;gradientColor=#ffd966;gradientDirection=west;" parent="da2mFbJtw7ZfNC7TPq2f-1" vertex="1">
          <mxGeometry x="440" y="556.7114093959731" width="120" height="63.624161073825505" as="geometry" />
        </mxCell>
        <mxCell id="3cde6dad864a17aa-11" style="edgeStyle=elbowEdgeStyle;html=1;labelBackgroundColor=none;endArrow=open;endSize=8;strokeColor=#ff0000;fontFamily=Verdana;fontSize=12;align=left;" parent="da2mFbJtw7ZfNC7TPq2f-1" source="3cde6dad864a17aa-1" target="3cde6dad864a17aa-2" edge="1">
          <mxGeometry relative="1" as="geometry" />
        </mxCell>
        <mxCell id="da2mFbJtw7ZfNC7TPq2f-19" style="edgeStyle=orthogonalEdgeStyle;rounded=0;orthogonalLoop=1;jettySize=auto;html=1;exitX=1;exitY=0.5;exitDx=0;exitDy=0;entryX=0;entryY=0.5;entryDx=0;entryDy=0;strokeColor=#FF3333;" parent="da2mFbJtw7ZfNC7TPq2f-1" source="da2mFbJtw7ZfNC7TPq2f-3" target="da2mFbJtw7ZfNC7TPq2f-13" edge="1">
          <mxGeometry relative="1" as="geometry" />
        </mxCell>
        <mxCell id="da2mFbJtw7ZfNC7TPq2f-3" value="Analytics/Code&lt;br&gt;Editor" style="rounded=1;whiteSpace=wrap;html=1;arcSize=24;fillColor=#FFD296;strokeColor=#d6b656;shadow=0;comic=0;labelBackgroundColor=none;fontFamily=Verdana;fontSize=12;align=center;gradientColor=#ffd966;gradientDirection=west;" parent="da2mFbJtw7ZfNC7TPq2f-1" vertex="1">
          <mxGeometry x="630" y="556.7114093959731" width="120" height="63.624161073825505" as="geometry" />
        </mxCell>
        <mxCell id="382b91b5511bd0f7-8" value="Search Data Sets" style="rounded=1;whiteSpace=wrap;html=1;arcSize=24;fillColor=#FFD296;strokeColor=#d6b656;shadow=0;comic=0;labelBackgroundColor=none;fontFamily=Verdana;fontSize=12;align=center;gradientColor=#ffd966;gradientDirection=west;" parent="da2mFbJtw7ZfNC7TPq2f-1" vertex="1">
          <mxGeometry x="110" y="556.7114093959731" width="120" height="63.624161073825505" as="geometry" />
        </mxCell>
        <mxCell id="3cde6dad864a17aa-10" style="edgeStyle=elbowEdgeStyle;html=1;labelBackgroundColor=none;endArrow=open;endSize=8;strokeColor=#ff0000;fontFamily=Verdana;fontSize=12;align=left;" parent="da2mFbJtw7ZfNC7TPq2f-1" source="382b91b5511bd0f7-8" target="3cde6dad864a17aa-1" edge="1">
          <mxGeometry relative="1" as="geometry" />
        </mxCell>
        <mxCell id="3cde6dad864a17aa-9" style="edgeStyle=elbowEdgeStyle;html=1;labelBackgroundColor=none;endArrow=open;endSize=8;strokeColor=#ff0000;fontFamily=Verdana;fontSize=12;align=left;" parent="da2mFbJtw7ZfNC7TPq2f-1" source="2a3bc250acf0617d-3" target="382b91b5511bd0f7-8" edge="1">
          <mxGeometry relative="1" as="geometry" />
        </mxCell>
        <mxCell id="3cde6dad864a17aa-1" value="Select And Explore Data Sets" style="rounded=1;whiteSpace=wrap;html=1;arcSize=24;fillColor=#FFD296;strokeColor=#d6b656;shadow=0;comic=0;labelBackgroundColor=none;fontFamily=Verdana;fontSize=12;align=center;gradientColor=#ffd966;gradientDirection=west;" parent="da2mFbJtw7ZfNC7TPq2f-1" vertex="1">
          <mxGeometry x="280" y="556.7132977843155" width="120" height="63.624161073825505" as="geometry" />
        </mxCell>
        <mxCell id="24f968d109e7d6b4-3" value="" style="ellipse;html=1;shape=endState;fillColor=#000000;strokeColor=#ff0000;rounded=1;shadow=0;comic=0;labelBackgroundColor=none;fontFamily=Verdana;fontSize=12;fontColor=#000000;align=center;" parent="da2mFbJtw7ZfNC7TPq2f-1" vertex="1">
          <mxGeometry x="1130" y="572.6144065459227" width="30" height="31.812080536912752" as="geometry" />
        </mxCell>
        <mxCell id="da2mFbJtw7ZfNC7TPq2f-20" style="edgeStyle=orthogonalEdgeStyle;rounded=0;orthogonalLoop=1;jettySize=auto;html=1;exitX=1;exitY=0.5;exitDx=0;exitDy=0;entryX=0;entryY=0.5;entryDx=0;entryDy=0;strokeColor=#FF3333;" parent="da2mFbJtw7ZfNC7TPq2f-1" source="da2mFbJtw7ZfNC7TPq2f-13" target="da2mFbJtw7ZfNC7TPq2f-17" edge="1">
          <mxGeometry relative="1" as="geometry" />
        </mxCell>
        <mxCell id="da2mFbJtw7ZfNC7TPq2f-13" value="Configure Storage" style="rounded=1;whiteSpace=wrap;html=1;arcSize=24;fillColor=#FFD296;strokeColor=#d6b656;shadow=0;comic=0;labelBackgroundColor=none;fontFamily=Verdana;fontSize=12;align=center;gradientColor=#ffd966;gradientDirection=west;" parent="da2mFbJtw7ZfNC7TPq2f-1" vertex="1">
          <mxGeometry x="800" y="556.7114093959731" width="120" height="63.624161073825505" as="geometry" />
        </mxCell>
        <mxCell id="da2mFbJtw7ZfNC7TPq2f-21" style="edgeStyle=orthogonalEdgeStyle;rounded=0;orthogonalLoop=1;jettySize=auto;html=1;exitX=1;exitY=0.5;exitDx=0;exitDy=0;entryX=0;entryY=0.5;entryDx=0;entryDy=0;strokeColor=#FF3333;" parent="da2mFbJtw7ZfNC7TPq2f-1" source="da2mFbJtw7ZfNC7TPq2f-17" target="24f968d109e7d6b4-3" edge="1">
          <mxGeometry relative="1" as="geometry" />
        </mxCell>
        <mxCell id="da2mFbJtw7ZfNC7TPq2f-17" value="Schedule and Publish" style="rounded=1;whiteSpace=wrap;html=1;arcSize=24;fillColor=#FFD296;strokeColor=#d6b656;shadow=0;comic=0;labelBackgroundColor=none;fontFamily=Verdana;fontSize=12;align=center;gradientColor=#ffd966;gradientDirection=west;" parent="da2mFbJtw7ZfNC7TPq2f-1" vertex="1">
          <mxGeometry x="970" y="556.7114093959731" width="120" height="63.624161073825505" as="geometry" />
        </mxCell>
        <mxCell id="da2mFbJtw7ZfNC7TPq2f-25" value="" style="group" parent="da2mFbJtw7ZfNC7TPq2f-1" vertex="1" connectable="0" treatAsSingle="0">
          <mxGeometry x="90" y="32.46575342465753" width="62.82" height="96.31506849315068" as="geometry" />
        </mxCell>
        <mxCell id="da2mFbJtw7ZfNC7TPq2f-41" value="" style="group" parent="da2mFbJtw7ZfNC7TPq2f-25" vertex="1" connectable="0" treatAsSingle="0">
          <mxGeometry y="21.643835616438356" width="62.82" height="96.31506849315068" as="geometry" />
        </mxCell>
        <mxCell id="da2mFbJtw7ZfNC7TPq2f-23" value="" style="shape=image;verticalLabelPosition=bottom;labelBackgroundColor=#ffffff;verticalAlign=top;aspect=fixed;imageAspect=0;image=https://dzone.com/storage/temp/12438372-elasticsearch-color-cmyk.jpg;imageBorder=none;" parent="da2mFbJtw7ZfNC7TPq2f-41" vertex="1">
          <mxGeometry width="62.82" height="68.79" as="geometry" />
        </mxCell>
        <mxCell id="da2mFbJtw7ZfNC7TPq2f-24" value="&lt;font face=&quot;Tahoma&quot;&gt;&lt;b&gt;ealasticsearch&lt;/b&gt;&lt;/font&gt;" style="text;html=1;strokeColor=none;fillColor=none;align=center;verticalAlign=middle;whiteSpace=wrap;rounded=0;shadow=1;glass=0;comic=0;" parent="da2mFbJtw7ZfNC7TPq2f-41" vertex="1">
          <mxGeometry x="16" y="74.67123287671232" width="40" height="21.643835616438356" as="geometry" />
        </mxCell>
        <mxCell id="da2mFbJtw7ZfNC7TPq2f-27" style="edgeStyle=elbowEdgeStyle;html=1;labelBackgroundColor=none;endArrow=open;endSize=8;strokeColor=#ff0000;fontFamily=Verdana;fontSize=12;align=left;entryX=0.5;entryY=1;" parent="da2mFbJtw7ZfNC7TPq2f-1" edge="1">
          <mxGeometry relative="1" as="geometry">
            <mxPoint x="289.9971428571429" y="487.78712328767125" as="sourcePoint" />
            <mxPoint x="290.13999999999976" y="355.23489932885906" as="targetPoint" />
          </mxGeometry>
        </mxCell>
        <mxCell id="da2mFbJtw7ZfNC7TPq2f-28" style="edgeStyle=elbowEdgeStyle;html=1;labelBackgroundColor=none;endArrow=open;endSize=8;strokeColor=#ff0000;fontFamily=Verdana;fontSize=12;align=left;entryX=0.158;entryY=-0.004;entryDx=0;entryDy=0;entryPerimeter=0;" parent="da2mFbJtw7ZfNC7TPq2f-1" edge="1" treatAsSingle="0">
          <mxGeometry as="geometry">
            <mxPoint x="490.63428571428574" y="356.13311850694123" as="sourcePoint" />
            <mxPoint x="490.14" y="487.7847424657533" as="targetPoint" />
          </mxGeometry>
        </mxCell>
        <mxCell id="da2mFbJtw7ZfNC7TPq2f-48" value="Returns Pipeline ID" style="text;html=1;align=center;verticalAlign=middle;resizable=0;points=[];labelBackgroundColor=#ffffff;" parent="da2mFbJtw7ZfNC7TPq2f-28" vertex="1" connectable="0">
          <mxGeometry x="-0.374" y="3" relative="1" as="geometry">
            <mxPoint x="17.14" y="43.12" as="offset" />
          </mxGeometry>
        </mxCell>
        <mxCell id="da2mFbJtw7ZfNC7TPq2f-29" style="edgeStyle=elbowEdgeStyle;html=1;labelBackgroundColor=none;endArrow=open;endSize=8;strokeColor=#ff0000;fontFamily=Verdana;fontSize=12;align=left;entryX=0.5;entryY=1;" parent="da2mFbJtw7ZfNC7TPq2f-1" edge="1" treatAsSingle="0">
          <mxGeometry as="geometry">
            <mxPoint x="270.137142857143" y="291.607397260274" as="sourcePoint" />
            <mxPoint x="270.27999999999986" y="159.05517330146182" as="targetPoint" />
          </mxGeometry>
        </mxCell>
        <mxCell id="da2mFbJtw7ZfNC7TPq2f-37" value="Daas" style="text;html=1;align=center;verticalAlign=middle;resizable=0;points=[];labelBackgroundColor=#ffffff;" parent="da2mFbJtw7ZfNC7TPq2f-29" vertex="1" connectable="0">
          <mxGeometry x="-0.2875" y="-6" relative="1" as="geometry">
            <mxPoint as="offset" />
          </mxGeometry>
        </mxCell>
        <mxCell id="da2mFbJtw7ZfNC7TPq2f-30" style="edgeStyle=elbowEdgeStyle;html=1;labelBackgroundColor=none;endArrow=open;endSize=8;strokeColor=#ff0000;fontFamily=Verdana;fontSize=12;align=left;entryX=0.5;entryY=1;" parent="da2mFbJtw7ZfNC7TPq2f-1" edge="1" treatAsSingle="0">
          <mxGeometry as="geometry">
            <mxPoint x="308.2871428571429" y="292.6895890410959" as="sourcePoint" />
            <mxPoint x="308.4299999999998" y="160.13736508228376" as="targetPoint" />
          </mxGeometry>
        </mxCell>
        <mxCell id="da2mFbJtw7ZfNC7TPq2f-38" value="Hive" style="text;html=1;align=center;verticalAlign=middle;resizable=0;points=[];labelBackgroundColor=#ffffff;" parent="da2mFbJtw7ZfNC7TPq2f-30" vertex="1" connectable="0">
          <mxGeometry x="-0.3168" y="-1" relative="1" as="geometry">
            <mxPoint as="offset" />
          </mxGeometry>
        </mxCell>
        <mxCell id="da2mFbJtw7ZfNC7TPq2f-35" value="&lt;h1&gt;DataSource&lt;/h1&gt;&lt;p&gt;Rest calls to &lt;br&gt;different data services&lt;/p&gt;" style="text;html=1;strokeColor=none;fillColor=none;spacing=5;spacingTop=-20;whiteSpace=wrap;overflow=hidden;rounded=0;shadow=1;glass=0;comic=0;" parent="da2mFbJtw7ZfNC7TPq2f-1" vertex="1">
          <mxGeometry x="220" y="54.10958904109589" width="150" height="86.57534246575342" as="geometry" />
        </mxCell>
        <mxCell id="da2mFbJtw7ZfNC7TPq2f-36" style="edgeStyle=elbowEdgeStyle;html=1;labelBackgroundColor=none;endArrow=open;endSize=8;strokeColor=#ff0000;fontFamily=Verdana;fontSize=12;align=left;entryX=0.5;entryY=1;" parent="da2mFbJtw7ZfNC7TPq2f-1" edge="1">
          <mxGeometry relative="1" as="geometry">
            <mxPoint x="450.137142857143" y="487.78712328767125" as="sourcePoint" />
            <mxPoint x="450.27999999999986" y="355.23489932885906" as="targetPoint" />
          </mxGeometry>
        </mxCell>
        <mxCell id="da2mFbJtw7ZfNC7TPq2f-40" style="edgeStyle=elbowEdgeStyle;html=1;labelBackgroundColor=none;endArrow=open;endSize=8;strokeColor=#ff0000;fontFamily=Verdana;fontSize=12;align=left;entryX=0.158;entryY=-0.004;entryDx=0;entryDy=0;entryPerimeter=0;" parent="da2mFbJtw7ZfNC7TPq2f-1" edge="1">
          <mxGeometry relative="1" as="geometry">
            <mxPoint x="330.4942857142861" y="356.1331185069412" as="sourcePoint" />
            <mxPoint x="329.9999999999999" y="487.78474246575325" as="targetPoint" />
          </mxGeometry>
        </mxCell>
        <mxCell id="da2mFbJtw7ZfNC7TPq2f-205" style="edgeStyle=orthogonalEdgeStyle;rounded=0;orthogonalLoop=1;jettySize=auto;html=1;exitX=0.5;exitY=0;exitDx=0;exitDy=0;entryX=0;entryY=0.5;entryDx=0;entryDy=0;entryPerimeter=0;strokeColor=#FF3333;" parent="da2mFbJtw7ZfNC7TPq2f-1" source="da2mFbJtw7ZfNC7TPq2f-42" target="da2mFbJtw7ZfNC7TPq2f-198" edge="1" treatAsSingle="0">
          <mxGeometry as="geometry" />
        </mxCell>
        <mxCell id="da2mFbJtw7ZfNC7TPq2f-206" value="Attach Git Repo to Pipeline" style="text;html=1;align=center;verticalAlign=middle;resizable=0;points=[];labelBackgroundColor=#ffffff;" parent="da2mFbJtw7ZfNC7TPq2f-205" vertex="1" connectable="0">
          <mxGeometry x="-0.493" y="-5" relative="1" as="geometry">
            <mxPoint as="offset" />
          </mxGeometry>
        </mxCell>
        <mxCell id="da2mFbJtw7ZfNC7TPq2f-42" value="" style="shape=image;html=1;verticalAlign=top;verticalLabelPosition=bottom;labelBackgroundColor=#ffffff;imageAspect=0;aspect=fixed;image=https://cdn4.iconfinder.com/data/icons/logos-3/504/my_sql-128.png;shadow=1;glass=0;comic=0;strokeColor=#E6E6E6;fillColor=#E6E6E6;gradientColor=#ffffff;imageBorder=#000000;" parent="da2mFbJtw7ZfNC7TPq2f-1" vertex="1">
          <mxGeometry x="380" y="64.93150684931506" width="90" height="90" as="geometry" />
        </mxCell>
        <mxCell id="da2mFbJtw7ZfNC7TPq2f-49" value="Creates A Source Request , notebook details and attach to the pipeline ID" style="text;html=1;strokeColor=none;fillColor=none;align=center;verticalAlign=middle;whiteSpace=wrap;rounded=0;shadow=1;glass=0;comic=0;" parent="da2mFbJtw7ZfNC7TPq2f-1" vertex="1">
          <mxGeometry x="420" y="210" width="160" height="93.89" as="geometry" />
        </mxCell>
        <mxCell id="da2mFbJtw7ZfNC7TPq2f-196" value="" style="group" parent="da2mFbJtw7ZfNC7TPq2f-1" vertex="1" connectable="0" treatAsSingle="0">
          <mxGeometry x="530" y="64.93150684931506" width="189.70999999999992" height="97.39726027397259" as="geometry" />
        </mxCell>
        <mxCell id="da2mFbJtw7ZfNC7TPq2f-50" value="" style="shape=image;verticalLabelPosition=bottom;labelBackgroundColor=#ffffff;verticalAlign=top;aspect=fixed;imageAspect=0;image=data:image/png,iVBORw0KGgoAAAANSUhEUgAAAO4AAADUCAMAAACs0e/bAAAAz1BMVEX////mbiB2dHT4+Pj8/PyTk5OXl5f5+fnlYwDlZQD09PSQkJDx8fHl5eUZJS6+vr4mLzc4QEcRHykrNDuHi47laAvc3NzLy8uvr69tcXWhpKbs7OwvNz4WIizY2Nifn59ta2u4uLhCSU9pZ2f87eYgKjNhZ2vGxsb99fHtmW6srKz20cD65dvsk2XncSVUWl/oeDXxsZLofUDun3f20L/qiVX53dD0xrHwrIt3e38AFiKAfn7yu6DslWjvpH/pg0vr2tIAAAkAABbjVADyt5xge3kZAAALuUlEQVR4nO2ceX+azBbHNayyCwGMbGIkGDUabaMx7dM89968/9d0hx0tLiAk9dPz/aNNDOD5zZw5c2aj1QIAAAAAAAAAAAAAAAAAAAAAAAAAAAAAAAAAAAAAAAAAAAAAALh+eL8nal9txGeBkfeDweD+B//VhnwK2M3gJmTwV+hlY7UI/KttaR7+PlU7EL/amOZxs8q9Yb/amOZxMrU3P77amOaZDP4quXpOrvPVxpwJw1W+lcrk3l9HqsGxg8GNf+SC0Ww9nU7Xs1HRH/UkNA/IhuyrFyyqmsJeZDxdPqk0otMJ/qXbT8vpeO8aMdI7ID7B1hroRe44+C1JmL2u6I6qtvOoSPz7crZzHU/e3A9u9U8z+DLYwhxwvJzTu0pzmunnn7t1jJ+VUOEhGMNwHGckoJ8ZrD41J4nl3hu5z2aPB7VGdOhvhS15DxynKAyLBO4QKuURmm3rui+Koq/bPE81JTJDHOx3mrN/ToiNqviQ4EgjE4NRCPxE9eMUxvGa7vd6os03nHrfIr2DrBfBf50hNhK83DE5lYnq86TAA1C87fbdZns08ccPJ3XlqXqe2NCl5+tW6rFIY1WRu+C863xW4PtGny02gH7Fz/DV0jCiUz3zOZ/R8/lVG1fw+34/XA8a2bzedaek2HbQE89OP7gCWr+Rx+bYlHPkBHraiDVNDzh+FqhV1TB97ASE/xcFMvp7E+ZMmnhoxl7dBuli+/1xuQnGBqPxeDwKRgqb5eN7G6WWn1C/zdbu97xaJDUYDBTHW3z0fflC73TO9Lp2e+xGa3dG57Q+f5w2f718zinunJNSloEhmozM40zr6ue5ps8+MsXzeu2hSLveB+7yosZif5XrVtbJWEJ9rNMchmw0rfoIXbmjfpTPGcavUeCiN/WZw5ONZc1o/Mn9S4eh+KNaKhgL7tSWXvmOcfqiCuAYZ/AG03pH5tLfqps7ekLlpT7VY5TRdxsYAuIMGl4bXDCgRj1u5/myVHA6V+vpjSjRqX1pDUdjaY3nkrmDeZv+dfEjH+n26tKHoN62X3OM2pPaCpLHWrKiDX1xMqlNRKYGS1I43rZ5Y28mTJ3XkyPMOs8X3a/1xBpTC4zXdG1fKmIzryukji5pvVrPry0e44am63xx2dU4Ph+9VLyRsl2/rprFeFu3+UNzubPL1WKOE6+5FK+rBLji4RjE6a5d01Qzh6pV45qdy8QI4uTCPUscGuHwvq/VY59h+zp/SawzzprnxgjytFyyV/Qxo/l6LU0W53VRv2xa3h/+56zctapc3ECeV8fCQajVuNRFHE84K8OpJhc1M62O8ITzvqvXkYk1KBeFT/vi6ggopZXijxVwX9qRixvGfhzgwg8Sucf8Mi+XMjS7ltUvQ3f93JLS7WIYqiGH3dhuuzsMF9mx4dBtGVvFsoRF2ENQi8UwiRn+YtFvtR4WQ9NcoI+jW/lt15Klh7g7MbpduyUO3+7ChwVyGdEhSTcuD00U456FF0Ujlau5fce1+aJkpzyY7brazoPupLdQ7q0nxzFHl73b8FpP6NuWLHiCpMhEdI2QTGTfBZfjkiyZpmBZUbjqWYLQHQqeHG2eYt5ku/cmWYlcn2dZgiBJIiobn2AT4SzLJ3L74TWEU4cTa2JP33fMO0WO5EpWIleQQrm4KW27Ut9gtFvLlN3gfsvsRtdgnrIILtW3kuTqvh8YLsreHaolA5WEG14jS33P2/bFWG6PdHTenpBktEHDJ1O5BJHInbCurdnIBy6eUuX0iVjQYI/I7ZqKF93RE0wlaEgLxYqmw0TBCyW1+mmowjzpIfppoZh4KNc0vWT2DMkloyRiQhL2IblJzfdI4rJBnuZOipOwo3JjTcFVQvCjG/8p+D2KI1lk7ntW3LBFT9AjuV6aJiG5RPT9BkG6BXIpBmPjgkBfnbhAJSh94h6KxMfkRrUUf7YN/ldMKaq46Ne83GFSuS1OkMhIrpCGaSwWiYg9dUeuxjBYULvJ5WJSz+XhfMc/nCUelZsIaHFRW22xkhA0RdeT43pI5TKe8tCbhPSVsDCQ3G76Nbl+14lUJXJxzE6dOXUGVALVJpEN17GPhbljctP6QmFLCU3nrbAIHqRhYnsilxdMSY7xhLtQblZcB+QGU5wMngtVqdVEpVnkQOzxK86TSylKJPBBEQxU117SIaVyNUG566f458glDAYLaqJALl9FLndSbJFcu8CZDS/+GYXkPvJlIUk3UrmGF0exlGNyKQxDzTN+SIHcCs6MiafFZnJJSYjLM9d207YnClK8wS+o5oes2rNQZSqJgyfff1guhVEtPY1GWdtNV+NFki055tNJ/5zUJJHb86S4a7+V0o4oKQHkw3GHi4rF0jwh3Q2Kup/YKbaStVu6RXJRY8ViZ7ZTf52QidykvltlOyKuPzlvzJ7I5WVTCe/wZTNLM7pREjYRosCMMJAIxUtvd72kb9bezO7OV/4mN9CKp22XQf1OWB86m8ol4+TRLZlm6Ge7fiIXeajSFTX99u1hmModmoprYNrWMq20G3xQFCkrelRKps6FMyt9WVF6BkVhdrTlKScXxzlyP1Sh1Il0NI53WSROi+S6rGMzjNYvl0TivcnZ44lUrqFIiidYchdbeEnbXfiybHmW5ClZ6flCTnswVjAF+b/hI/qyhK6VLOstGmK8hU0cD/aP4Uw2V+UQkVwMeSxBsKyLE2wgF2cJXmfRB8EQocR4CHNKHF95UOTYBbktUmsid7obJnKHaEwnWUI3/+0G6nFy9+PBXV70CP5WQcMjwdxGtdsdblvBXsDwl14vcU/Rjc3DRIIg+nZQO4FciiT5ltZHn5XaEIeV6rKGppyZbuTHS6FcBLMb8RxvLyTt3BWuFraiXYHBf6ds/f0jnCs30i1VNriw339kf+oW/cnwsl7o0I3RBtYSVlyA6J6+JsP1pEM75gvlUkPl7XDyHu5orX334zEotsyXidJO3NmhSK42lKzinXl4TIkvrwOtcGq6mG1XUN4OXv+7XGYrKMK24MqvEBqhlfDlhWUNDzd0XLK6ex8pkrzn+l8nNMIokX25vaMrAIYR53R4sopFbHM3VNVZ7+7XybHTTRX5lS0B4uk/FXmtefOcU/+ulLU6boXb6y/vYF5r2nyTIZJ6baducBzDGA5bqbN6+tLX/9W/k5sTyZ590YYNlOgy4Uke3uA4NDid0modW4TwF7rq4v1xNNFxxEN7Dw4RSuR5DRHsp2KwbJFmpdKvFxu1bqt0M9v0W8EysO5OnIkr6raGMlkmaHlUnAxQ0TmX7BhWcBDLDmQaBhdn9buW0u3O+4WmLumad4H+Do4hMbrvi24vxA1BgxJR9H2k0LYjicypbuVJ3T8DVZL1c6fdpps5c1I/4064BbTqntXRS7CFlP5Zq01NEp1DoJ+rCI6PR6rvtVvVHE/RJuzOvOyO5ulLvH+79u35jTJPN+c/Tc/ugUfLdrI7v5nDNY0xSw+IqbT6+P2MOp4tV9nZixp6ss9lmjtYo3Y6q+X0sHfi659P7fzJms4/n2hpPewfm+rQ6suvzXQ2zo4T4ePRerN8fKbp3cNiajPpVLMUHAEMj8R12s+r5/fVajUPXrJQcCzuqoJyRsUjj51rrNuAaYUDrW3621ebXZnZvOxx5WtKpgp4KufQarv+w46fyqbEqwba9OPVv3Bt/M+5FdyZN3Mu+5NZr84RrKofX23oBTCanW0hmL6felVIp13heOQfg8GGr7bMlv/QsG7/yHmuYunV5pobbfKOrfvcKgu+eVLpghSqQz8vG5uU+hSylz3e78zb4+uPp3n0PgU1eseC+v5rc1UD2yLY3NsPf3PS8Xq6+Vgifm7Wo2t24QQue5PnzaDRM+9/BHbu5YeDUgvmV8mO3BJLyFeKkXfmBtYY/zRykWrQzCn/P4r01ZY3g2t5celFJC+mHfwFb6UNEAcB97Uc8bkGMH8yEf+CdgsAAAAAAAAAAAAAAAAAAAAAAAAAAAAAAAAAAAAAAAAAAAAAAAAAAPB1/B+lr/ameo/ItwAAAABJRU5ErkJggg==;" parent="da2mFbJtw7ZfNC7TPq2f-196" vertex="1">
          <mxGeometry width="89.81" height="80" as="geometry" />
        </mxCell>
        <mxCell id="da2mFbJtw7ZfNC7TPq2f-52" value="" style="shape=image;verticalLabelPosition=bottom;labelBackgroundColor=#ffffff;verticalAlign=top;aspect=fixed;imageAspect=0;image=data:image/jpeg,/9j/4AAQSkZJRgABAQAAAQABAAD/2wCEAAkGBw8QEhUQEBARFhEVFxYVFRUYFhoWFRYVFRYXGBYYGBYYHSggGBolHRcYITItJikuLjAuGB8zODcsNygtLisBCgoKDg0OGxAQGy4mICYvLS0tLy8vLTUyLSsuLS0tLS01LS0tLS0vLS0tLS0tLS0tLS0tLS0tLS0tLS0tLS0tLf/AABEIAMkA+wMBIgACEQEDEQH/xAAcAAEAAgMBAQEAAAAAAAAAAAAABQYBBAcDAgj/xABIEAABAwIDAwkEBwUECwEAAAABAAIDBBEFEiEGMVETIjJBQmFxgZEHcqGxFDNSYoKSwSNTorLRFkNjcyQ0RFSDk6PC0uHwFf/EABkBAQADAQEAAAAAAAAAAAAAAAABAgMEBf/EAC4RAAICAQIEBQQCAgMAAAAAAAABAhEDITEEEhNBIjJRYYFCcZGhFFKx0SMzYv/aAAwDAQACEQMRAD8A7iiIgCIiAIiIAiIgCIiAIiIAiIgCIsIDKLxqqmOJpfI9rWjeXEAfFVPFPaHSRaQh8zuI5rPzHX0CvDHKflRSWSMd2XFLrkeIe0Kuk0j5OJvcMzvV2nwVercVqZvrZ5Xdxcbem5dMeCm93Rzy4yC2R3GpxWmi+snib7z2j5lR8u1+HN31UZ927v5QuJWRargY92YvjZdkdmO3OGj+/wD4H/8AivSPbXDXf7S0eLXD5hcVRW/hQ9WR/Mn6I75SYxSzfVTxP7mvBPpdbt1+dlKYdtDWU/1U7wPsk5m+jrrOXAv6WaR43+yO6rK51g3tJBs2rit/iR7vEsOvoVe6DEIZ2CSGRr2nrB+B4FcmTFOHmR1QyxnszaRYCyszQIiIAiIgCIiAIiIAiIgCIiAIiIAiKJx/aCnomZpXc49Fg1e7wHDvOilJt0iG0lbJOSQNBc4gAakk2AHeVRNovaGxl46MB7v3h6H4R2vl4qn7SbUVFabPOWK+kbd3i49o/BQa9DDwaWs/wcGXi29IG1iGIz1Ds88jnu6rnQeA3DyWqiLtSS0RxNt6sIiKSAiIgCIiAIiIAtvDMTmpn8pBIWO67bnDg4biFqIoaTVMlNrVHYNktsYqy0UgDKi3R7L7byz+nzVpC/PDHlpBaSCDcEaEEbiCusbCbV/Sm8jMf9IaN+7lGjr94dfr4ebxHDcnijsejw/Ec3hluXBFgFZXGdgREQBERAEREAREQBEWEBlYWHOA1O5c62v263wUTu50w+Ij/r6cVpjxSyOomeTJGCtk1tdtnHSXiis+o4dlnvW6+75LlNbWSTvMsry57t5PyHAeC8SSdSbk6k9ZKwvVw4I41pueXlzSyPUIssaXEBoJJ3AC5PgArJhmw9fPYmMRNPXIbG3ui59bLSU4x3ZSMJS2RWkXQP7EUNOL1taB90FrPncleL63Z+DoQSTHiQ4j+NwHwWX8hPyps06DXmaRRbrGYcQrnLtpTt0gw2naOLgCfQD9VpVG2tS7RsVMwd0QP811ZTyP6f2VcIL6v0Vq6LcrcTlm+sLPKONnxY0Faa0V9zN12CIikgIiIAiIgC9qKqfDI2WM2ewhzT3j9Du814olXoydtTv+F1rZ4Y5m7ntDvC41HluW2qh7L6ovo8p/u5HM8iGvH8yt68PJHlk0e1jlzRTCIioXCIiAIiIAviaRrQXOIDWgkk7gBqSV9ql+1DEDHTNiabGZ1j7jRcj1sr44c8lEpknyRcj6g9odI6bki17YycolNst+JF7hvf8AJWuqqo4mGSR4axouXE6ALlWDbMRxx/TMROSAWLYtz5OAI3i/Dee5Rm0m0ctY4C2SBmkcQ3ADQF3E29Opdb4aM5VDbuci4iUY3PfsSO1+2UlWTFDmZT9fU6Tvdwb3eqqa9aWmklcI42Oe87mtFyrzgvs+sOVrpAxg1LA62n337h5eq6ubHhjRzVkzOykUVHLO7JDG57+DRf14DxV2wj2dutylbKGNGpYwi9vvPOg8r+K3a7bOiom8jQRNcRpcc2PxLt7z/wDXVIxjHqqrN5pSW9TBzWD8I3+dyqXlybeFfstWLHvq/wBF5k2kwrDgWUcQkk4t3fildqfK6rGLbb109wHiJh7Meh83HX5KtIrw4eC1er9yks83otF7GXuJNySSd5OpPmsIi3MgiIhARAOCIAiIgCIiAIiIAiIgOneyX6mb/NH8gV8VN9llPlpHPPblcR4Na1vzaVcl43EO8jPY4df8aCIixNgiIgCIiAKvbUvo4clXVc4xZhEz7T3WOjet3NG/Qb1v47jEVJEZpTpua0dJzuoBcexGuqsRqASC57jZkbdQ0cBwHErp4fC5u3ojmz5VFVuzz2gxyatk5SU6C+Rg6LAeod/EqX2a2JnqrSS3ih33I57h90HcO8/FS9Dg1FhbRPXvbJUWuyJvOynub2j3nQdSgtotsqmruxp5KH7DTq4fedvPgNF2c0peHFovU5HGMfFk1foWeq2gw7C2mGjjEku5xBuLj7cnWe4fBUfGsfqas3mkJb1MGjB4N6/O5UYi0x4Ix13fqZzzSlpsvQIiLYxCKTwrAKuq+pheW/aPNZ+Y6eitdJ7Po4m8pXVTWNG8NIA83u/osp5oR3ZrHDOWyKCSpfDdma2o+rgflPadzG+rt/krQ/aDCaHSiphLIP7w3tf333d6Cyr+LbYV1TcGXIw9iPmjzd0j6qqnkn5VX3/0W5IR8zv7G5NstTUw/wBNrmNd+6iGd/x3eYUdPiNFHpTUmY/vJ3Zz/wAsHKPO6hUV1jf1OyrmvpVGxU1sknTdcdQADWjwa0ABa6ItEqM2wiIhAREQBERAERT+xGFfSatgIuyP9o/wb0R5ut8VWclGLky0YuTSR1jZqg+j00UJ3tYM3vHV3xJUmsBZXht27PbSpUERFBIREQBec8zWNL3EBrQXOJ3AAXJX2VRvaji5jibTNPOl1f7jerzPyKvjg5yUSmSfJFyKljeITYpUnJpG2+QONmRxjpSPPZvvPkFsDHoKFhioAHzEWkqnDf3RtPZ8fiqwJnBpYCQ0m5HEjdfivNev0lt29Dyeq7vv6npUTvkcXyOc57tS4m5K80X1GwuIa0EuO4AXJ8AFrsZ7nyit2DbA1UvPnIgj3m+r7e72fM+SlxiGD4ZpAzl5x2gc2vvnmt/CFhLOtoq2bRwOrloivYLsVWVNnFnJR/aeCCR91m8+dlaGYTg+G61DxLMNbO5x8ohoPP1VYxnbatqLgP5KM9mPQ+b9/pZVsm+p3qvTyT87peiLc+OHlVv3Lzi3tFldzKSIRt3BzrF3k3oj4qm11fNO7NNI97vvG9vAbh5LXRawxQhsjKeWU92ERFoUCIt/CcHqKp2WCMu4u3Mb7ztwUNpK2Em3SNBe5pJAwSltmE2aTpmP3fteWistRSUOHaSFtVVjsDSGM/e+0e4+gVcxCvlqHmSV13HTgABua1o0ACpGbltsXlFR33NZERaGYREQBERAF1/2eYL9Gp+UeLSzWeeIb2G/G/mqNsHs/wDS587x+wiILuDnb2t/U93iuxhefxmX6F8nfwmL62ZREXAd4REQBERAYK4rt1WmatlN+awiNvgwWP8AFmPmu1L8+4g8ulkcd5e8+riu3gl4mzi41+FI8EAW1RUL5dQWtYOlI85WN8T1nuGpU1TYvS0X+qx8tP8A7xKLNaf8OP8AU6rvlOtErZwxje7PXB9jJXt5areKeAakvsHkdwPR8/RSn9pcOoAWUEHKSbjK7r/EecR3CwVOxPFJ6l2eeVzz1X6I8GjQeS01n0nPzv4NOqo+RfJK4xtFV1f1spy/YbzWflG/zuopEW0YqKpIycm3bCIikqEX1GxziGtBLjuABJPgArPhOwlbPYvaIWcX9LyYNfWypPJGCuTLxhKWyKspDCcFqao2gic4fa3MHi46LoMWzOFYeBJVyNe/q5Q7/diG/wCKjcX9olhydFEGgaB7gNPdjGnr6LDrynpjXyzboxh/2P4M02xlJRs5bEp2nhG0kNJ4faee4WUdju2jnN5ChZyEA0uAGvcO63QHhr3qsVtbLO4yTSOe89bjf06gPBa6vHDb5pu3+isstKoKl+wiL6jYXENaCXE2AAuSeAA3lbmJ8renw10cTZZeaZPqmHpOaN7yOpvUON+CnoMJgw9onrgH1B1ipQdx6nSnh3bvFV3Eq+SokdLK67negHU0DqAWam5Pw7epdw5VruaqIi0KBb2DYXLVythiGp3nqa3rc7u/9LzwzD5amRsULS5zvQDrLj1ALsuzGz0VDFkbrI6xkf1uI6hwaOoLnz51jVLc3wYXkfsbmDYZHSxNhjHNbvPW53W495W+EReS227Z6qVKkERFBIRFhAZWF8ySBozOIAG8k2A81Tsd9oNPDdlOOWfxBtGPxdry9VeEJTdRRSeSMFbZc7rg2P0xiqZoyOjI70JuPgQpNm2dW6ojnlkORjgTG3msynRwsN+hO+6mvaThGfJXw85j2tEhGvUMj/C2nou3DB4Z1LucWaazQuPYoZcTYXNhuHUFhEXecQRFIYdgdVUfVQvLftEZWfndYKG0twk3sR6XVtptlaWPWsxCBhG+ONwc/wAL7/gpCDHcFo/9WpnyvHbcOv3n6jyCxef+qbNVh/s0itYVsxW1NuTgcGntu5jfInf5XVuw/wBnUUYz1lQLDeG8xo8Xu1+SisS9olZJpE1kQ7ue71cLfBViuxGec3mlkefvOJHkNwVeXNPd0XvDDtZ0h+0mE0ALaZjXu/wxe/jId/qVWcW2+rJriPLCw/Z1f+c/oAqmimPDQWr1fuVlxE3otF7H3LK55Lnuc5x3kkknzK+ERdBiEUlg2B1NW7LDGSOt5uI2+Lt3lvU9JgeFU2lTXOkkG9kIBseGl7eZCzlljF13LxxyasrmH4ZJNzrtZEOlK85Y291+s9w1UuzGaejBbQtzzbnVUg1/4UZ6I8fitl+L4RoG0dRLl0aHyuAHg0OIHovaLF6M9HBLjuLj/wBixlJveLr4NYxS2aKhPM+Rxe9znOJuXE3J8SvNXiLC6GuJijppqSpIJjD83JvIF7Wd+llH4XsJXTHntETNxL9/k0anzstFnhWuhR4Z3pqVdWDZ3ZGprLOsY4f3jhvH3B2vkuhYHsPR01nObysg7TxoD3M3DzuVZg1c2Xje0Dpx8H3mRuBYFBRsyQt1Nszzq5x4k/puUoiLgbbds7kklSCIigkIiIAVp4nUSRxufFE6V46LAQCT4ncFuLFkIZzmuwHGMQN6h7IouqPNzR+Ft8x8St6g9mtM3WaWSQ8BzG/C5+KvFllbPiJ1S0+xiuHhdvX7kLR7K0EXQpo78XDOf4rqUkpmOYY3NaWEZS22haRa1uC9kWTk3uzVRS2RybazYiWnJlpmukg3lo1fH5b3N79/Hiqcv0TZV3G9jaOqJcWGOQ9tnNJ8W7j6XXbi4ytJnHl4S9YHGmPLTcGxG4r0mqpX9OSR3vOJ+ZVtxP2c1UesL2St4dB3odD6qs1eE1MJyyQStPew28iBYrtjlxy2ZySxzjujSARDpvWA4cVpZnqZRfbInHc1x8AStmHCap/Qppz4RPt62UOSW7JpmmvWlpZJTaKN7zwa0u+Sl4dkMRfupXj3iG/MroWPw4mwRtw+OJrMgzABgc1/WOdpa1tw6isMmdJpRr8m0MDabdlJoNha2QZpAyFnGQ6/lH62W82iwWi1llNVKOyzoX8jb1JWtX7N41ObzNkf4ytI/Ley0f7F4l/uzvzN/qqXzeaa+C1cvlh+T0xba+ae0TGNip9whYS244Oc2xI7hYLOHTyaclhMb+8xSyfFxK2qLBcag0ihy94EN/U6rdDNo+Mv/SRuCVRr8hKTdyv8GzTYhjIH7LDYWD/Ly/NwWajENogCeQaB91jCfTMbrXEG0Z7Ug/FEFj/8faB/SmePGYD+VZVHvymty/8ARJ7AV1XVyyyVL3O5IBjWloaGueedoANbN+KvSgdjcFkpIC2ZwdK97nvIJOpsBqdSbD4qfXJmac3Wx1YU1BXuERFmahERAEREAREQBERAEREAREQBERAYWLL6RAeTqdh3safIL5FLF+7Z+UL3RTbIpHw2MDcAPJfVllFBJgLKIgCxZZRAEREAREQBERAEREAREQBERAEREAREQBERAFTcZ29jpqr6NyJc1rmNkkz2DS+xPNy62B4jcVaq+qbDG+V5s1jXPd4NFyuTU7KefD6uaeeEVU0hmDC9of8AsySGhpN7m7wONwtsUE9ZbGWSTWiOwAoqVRYu6fBZJQ5wkZBKxxBIcHxsIBBGoJFj5qDoMHqarD/pj66ozsY8xMDyGgRFws43u5xy776aKFi9X3onqeiOo3RUXCMSdV4W189Y6AtfkkmBs5wadACe04FouOtV2oxCCmnpn0FbUyAyNbK2Rzy1zSWjtAA3uUWFt0Q8mlnXFH7QVzqemmnYAXRsc4A7rjj3Kp7U1E1ViEWGsmfFDkzyljsrnaOda47mgfi7ltYlgbqOhrWipmljdES1shzFhAOazuB06upQoJVb3Jc7uid2WxJ9VSxTyBoe8EkN3aOI0ue5St1yelwKd2GfTPpkzTGxzoo2uLY2ta43BsQS46m/hvUni+0tQzCaeVryJ5iIzJ2gG5sztO0cvxKvLFb8PrRVZKWvodFXy82F7X7uK5JWV8VNyUtBVV0kzXDlWytmySN7RIe22/59y64Cs5w5aLxnzFIl25rGNL34RUNa0XcS8gADeSeT0Vg2Vxz6dBy/JGPnOblJzdHrBsLjy6lWdtqyStqGYVTneQ6oeNQ0DWx8BYnvLQtrbetdhtDHFSczM4Qtd1tblc4kH7Ry/wARK05E0klq/wDBRSabbeiLpdLrkVbXxU/JS0FVXSTteOVbI2bJI2xzEh7bDUAW7+5Tm1ctS7E6aCCofFysOUkEkC5lLjkvYus3Q+Cjo+5PVOg3Rc2dFNheI00bamaSGps1zZHF2pcG+ty038UMNRVYrV0oqpo4bNc8Ncb5WsjGVlzZly+5IUdL30qx1PY6Sl1zzZqeaixGagfNJLDkL2F7i4ghrXi192hcD3gFQtHisNZys1dVVjJC4iJkIlyRt7P1bSCf6d6nov4/2Oqjo+1OJvpaWWeMNL2AWDr21cBrbxUdNj1Z9CgqYKUTSyhhcxtwGhwJJG82vYearTMRnnwWo5cuLo3Bgc4EOc3Mwgm+p328ljaKokjwajMcj2H9kLtcWm2R3WD3Kyx9u9kOff2OlxuJAJFjYXHA8F9Ln+3tVUNnw9sEzo3yFzbgnLd5iYC5t7OtmJ1WrXUc+G11IW1c8rZ35ZBI4kHnNDtN1ufccLKixWtyXkrsdLREWRqEREAREQBERAQG29BU1NK6CmDc7y0OzOyjINTr4gDzK+KPY2gZGxjqaFzmtAc4t1cQNSfFWJYKtztKkV5U3ZzqHAamhpcSjfkNO+OV0RDrnRrhqLac3L6LRwCjxaTD2xUxgdTzCRvO5skYL3Ne0HrB1PEXXTK2lZNG+KQXY9pa4XIu1wsdRqF8YXh0VNE2GFuWNt7C5O8lx1Ou8ladbT3sp0tfYqGJbEyHD4qSF7TLE/lTfRj3G+YeHO07gvDGMCxStMDpI6aMQyNPJtdc2uMz81rdkWA4roKKFlkT00U/ajZ6qdVRV9EWcuwZXMfo1w1Hyc4Hy4L0dQ4nUU1Uyq5APlZkijYea3Q3Lna77jjuVsRV6jpE8iKtSYHO3CzRkN5YxPZa/NzOLiOd5rQm2Olmw2Gke5rKiE52kG7c13aEjWxDvIq8Ip6kv3Y5EVGlkx05WPho2gFuaTMSS0EZiGg7yLq1Sh1jltmsbX3XtovRFVyslRo5lgmz+OUjpJI2UjpZdXvkcXOPWQCLWBOqmMS2fr8QpHRVroGVDJc8JjzBlgy1na3BJc/d909SuqK7yu77lVjVUVGlkx0lrHw0bQC0OkzEkjtENHWQoXbOOZ2LUrYHtZNyd2OIu0OBmOo4EAjzXSFG1OCU8lRHVvYTNELMdmIAHO7INj0neqRyU7oiWO1RWKHAMQqK2Orr+Sa2Efs2MN7kbvAX11PUFEBlWcYq3Ubo+Va0Etf0ZG5YQWkjdvBv3Lp6jqfBKeOokq2sImkGV7sxII5vZvYdFvopWXe/Sg8e1epXtl9nKoVMtdXFnLSNLAxpuA0hoPwa0Df18Vq4bg2K4cZIqRtPNTveXtzuLXMv1HXhYeV9FfUVerIt00VfFMOrqnD5YZhD9JfuDCQwAOaQLnrsFHY7sxVTYbT0jAzlosmYF1m81jgbG2upV5RQsjW33DgmVHanZ+oqJ6GSLJlp3h0l3WNg+J2gtrow/Bem1mBz1NRRyxBmSGQuku6xtmjOgtr0SrUiLI1XsHBahERULhERAEREAREQBERAEREAREQBERAEREAREQBERAEREAREQBERAEREAREQBERAEREB/9k=;" parent="da2mFbJtw7ZfNC7TPq2f-196" vertex="1">
          <mxGeometry x="89.80999999999995" width="99.9" height="80" as="geometry" />
        </mxCell>
        <mxCell id="da2mFbJtw7ZfNC7TPq2f-53" value="&lt;b&gt;&lt;font face=&quot;Tahoma&quot;&gt;Notebooks&lt;/font&gt;&lt;/b&gt;" style="text;html=1;strokeColor=none;fillColor=none;align=center;verticalAlign=middle;whiteSpace=wrap;rounded=0;shadow=1;glass=0;comic=0;" parent="da2mFbJtw7ZfNC7TPq2f-196" vertex="1">
          <mxGeometry x="40" y="75.75342465753424" width="100" height="21.643835616438356" as="geometry" />
        </mxCell>
        <mxCell id="da2mFbJtw7ZfNC7TPq2f-198" value="" style="verticalLabelPosition=bottom;html=1;verticalAlign=top;align=center;strokeColor=none;fillColor=#00BEF2;shape=mxgraph.azure.github_code;pointerEvents=1;shadow=1;glass=0;comic=0;" parent="da2mFbJtw7ZfNC7TPq2f-1" vertex="1">
          <mxGeometry x="594.86" y="-42.219353705655074" width="50" height="54.10958904109589" as="geometry" />
        </mxCell>
        <mxCell id="da2mFbJtw7ZfNC7TPq2f-199" style="edgeStyle=orthogonalEdgeStyle;rounded=0;orthogonalLoop=1;jettySize=auto;html=1;exitX=0;exitY=0;exitDx=0;exitDy=0;entryX=0.5;entryY=1;entryDx=0;entryDy=0;entryPerimeter=0;strokeColor=#FF3333;" parent="da2mFbJtw7ZfNC7TPq2f-1" source="da2mFbJtw7ZfNC7TPq2f-52" target="da2mFbJtw7ZfNC7TPq2f-198" edge="1">
          <mxGeometry relative="1" as="geometry" />
        </mxCell>
        <mxCell id="da2mFbJtw7ZfNC7TPq2f-204" value="Publish to git" style="text;html=1;strokeColor=none;fillColor=none;align=center;verticalAlign=middle;whiteSpace=wrap;rounded=0;shadow=1;glass=0;comic=0;" parent="da2mFbJtw7ZfNC7TPq2f-1" vertex="1">
          <mxGeometry x="620" y="25.79653846153846" width="80" height="28.30833333333333" as="geometry" />
        </mxCell>
        <mxCell id="da2mFbJtw7ZfNC7TPq2f-215" style="edgeStyle=orthogonalEdgeStyle;rounded=0;orthogonalLoop=1;jettySize=auto;html=1;exitX=0.399;exitY=-0.005;exitDx=0;exitDy=0;entryX=0.75;entryY=1;entryDx=0;entryDy=0;strokeColor=#FF3333;exitPerimeter=0;" parent="da2mFbJtw7ZfNC7TPq2f-1" source="da2mFbJtw7ZfNC7TPq2f-207" target="da2mFbJtw7ZfNC7TPq2f-42" edge="1">
          <mxGeometry relative="1" as="geometry">
            <Array as="points">
              <mxPoint x="610" y="291" />
              <mxPoint x="610" y="223" />
              <mxPoint x="448" y="223" />
            </Array>
          </mxGeometry>
        </mxCell>
        <mxCell id="da2mFbJtw7ZfNC7TPq2f-207" value="Create Notebook Service(with source Request Id)" style="rounded=1;whiteSpace=wrap;html=1;arcSize=24;fillColor=#FFD296;strokeColor=#d6b656;shadow=0;comic=0;labelBackgroundColor=none;fontFamily=Verdana;fontSize=12;fontColor=#000000;align=center;gradientColor=#ffd966;gradientDirection=west;" parent="da2mFbJtw7ZfNC7TPq2f-1" vertex="1">
          <mxGeometry x="570" y="291.6107382550336" width="120" height="63.6241610738255" as="geometry" />
        </mxCell>
        <mxCell id="da2mFbJtw7ZfNC7TPq2f-213" style="edgeStyle=elbowEdgeStyle;html=1;labelBackgroundColor=none;endArrow=open;endSize=8;strokeColor=#ff0000;fontFamily=Verdana;fontSize=12;align=left;entryX=0.5;entryY=1;" parent="da2mFbJtw7ZfNC7TPq2f-1" edge="1" treatAsSingle="0">
          <mxGeometry as="geometry">
            <mxPoint x="609.5671428571429" y="487.7871232876714" as="sourcePoint" />
            <mxPoint x="609.71" y="355.234899328859" as="targetPoint" />
            <Array as="points">
              <mxPoint x="610" y="430" />
            </Array>
          </mxGeometry>
        </mxCell>
        <mxCell id="da2mFbJtw7ZfNC7TPq2f-214" value="Pipeline ID" style="text;html=1;align=center;verticalAlign=middle;resizable=0;points=[];labelBackgroundColor=#ffffff;" parent="da2mFbJtw7ZfNC7TPq2f-213" vertex="1" connectable="0">
          <mxGeometry x="-0.3343" y="-4" relative="1" as="geometry">
            <mxPoint as="offset" />
          </mxGeometry>
        </mxCell>
        <mxCell id="da2mFbJtw7ZfNC7TPq2f-218" style="edgeStyle=elbowEdgeStyle;html=1;labelBackgroundColor=none;endArrow=open;endSize=8;strokeColor=#ff0000;fontFamily=Verdana;fontSize=12;align=left;entryX=0.5;entryY=1;" parent="da2mFbJtw7ZfNC7TPq2f-1" edge="1" treatAsSingle="0">
          <mxGeometry as="geometry">
            <mxPoint x="644.8571428571431" y="291.6071232876712" as="sourcePoint" />
            <mxPoint x="645" y="159.054899328859" as="targetPoint" />
            <Array as="points">
              <mxPoint x="645.29" y="233.82" />
            </Array>
          </mxGeometry>
        </mxCell>
        <mxCell id="da2mFbJtw7ZfNC7TPq2f-219" value="NoteBook APIS" style="text;html=1;align=center;verticalAlign=middle;resizable=0;points=[];labelBackgroundColor=#ffffff;" parent="da2mFbJtw7ZfNC7TPq2f-218" vertex="1" connectable="0">
          <mxGeometry x="-0.3343" y="-4" relative="1" as="geometry">
            <mxPoint as="offset" />
          </mxGeometry>
        </mxCell>
        <mxCell id="da2mFbJtw7ZfNC7TPq2f-220" style="edgeStyle=orthogonalEdgeStyle;rounded=0;orthogonalLoop=1;jettySize=auto;html=1;exitX=0.697;exitY=0;exitDx=0;exitDy=0;strokeColor=#FF3333;exitPerimeter=0;" parent="da2mFbJtw7ZfNC7TPq2f-1" source="2a3bc250acf0617d-7" target="382b91b5511bd0f7-9" edge="1" treatAsSingle="0">
          <mxGeometry as="geometry">
            <mxPoint x="480" y="359.9999999999998" as="targetPoint" />
          </mxGeometry>
        </mxCell>
        <mxCell id="da2mFbJtw7ZfNC7TPq2f-221" value="Update Pipeline with storage" style="text;html=1;align=center;verticalAlign=middle;resizable=0;points=[];labelBackgroundColor=#ffffff;" parent="da2mFbJtw7ZfNC7TPq2f-220" vertex="1" connectable="0">
          <mxGeometry x="-0.3199" relative="1" as="geometry">
            <mxPoint as="offset" />
          </mxGeometry>
        </mxCell>
        <mxCell id="da2mFbJtw7ZfNC7TPq2f-223" style="edgeStyle=orthogonalEdgeStyle;rounded=0;orthogonalLoop=1;jettySize=auto;html=1;exitX=0.25;exitY=1;exitDx=0;exitDy=0;entryX=0.75;entryY=1;entryDx=0;entryDy=0;strokeColor=#FF3333;" parent="da2mFbJtw7ZfNC7TPq2f-1" source="da2mFbJtw7ZfNC7TPq2f-222" target="382b91b5511bd0f7-9" edge="1" treatAsSingle="0">
          <mxGeometry as="geometry" />
        </mxCell>
        <mxCell id="da2mFbJtw7ZfNC7TPq2f-224" value="Get Pipeline Details" style="text;html=1;align=center;verticalAlign=middle;resizable=0;points=[];labelBackgroundColor=#ffffff;" parent="da2mFbJtw7ZfNC7TPq2f-223" vertex="1" connectable="0">
          <mxGeometry x="-0.4055" y="4" relative="1" as="geometry">
            <mxPoint as="offset" />
          </mxGeometry>
        </mxCell>
        <mxCell id="da2mFbJtw7ZfNC7TPq2f-237" style="edgeStyle=orthogonalEdgeStyle;rounded=0;orthogonalLoop=1;jettySize=auto;html=1;exitX=0.75;exitY=1;exitDx=0;exitDy=0;entryX=0.5;entryY=1;entryDx=0;entryDy=0;strokeColor=#FF3333;" parent="da2mFbJtw7ZfNC7TPq2f-1" source="da2mFbJtw7ZfNC7TPq2f-222" target="382b91b5511bd0f7-10" edge="1">
          <mxGeometry relative="1" as="geometry">
            <Array as="points">
              <mxPoint x="900" y="470" />
              <mxPoint x="310" y="470" />
            </Array>
          </mxGeometry>
        </mxCell>
        <mxCell id="da2mFbJtw7ZfNC7TPq2f-317" style="edgeStyle=orthogonalEdgeStyle;rounded=0;orthogonalLoop=1;jettySize=auto;html=1;exitX=1;exitY=0.5;exitDx=0;exitDy=0;strokeColor=#FF3333;" parent="da2mFbJtw7ZfNC7TPq2f-1" source="da2mFbJtw7ZfNC7TPq2f-222" target="da2mFbJtw7ZfNC7TPq2f-316" edge="1">
          <mxGeometry relative="1" as="geometry" />
        </mxCell>
        <mxCell id="da2mFbJtw7ZfNC7TPq2f-222" value="Schedule Pipeline" style="rounded=1;whiteSpace=wrap;html=1;arcSize=24;fillColor=#FFD296;strokeColor=#d6b656;shadow=0;comic=0;labelBackgroundColor=none;fontFamily=Verdana;fontSize=12;fontColor=#000000;align=center;gradientColor=#ffd966;gradientDirection=west;" parent="da2mFbJtw7ZfNC7TPq2f-1" vertex="1">
          <mxGeometry x="810" y="291.6107382550336" width="120" height="63.6241610738255" as="geometry" />
        </mxCell>
        <mxCell id="da2mFbJtw7ZfNC7TPq2f-238" style="edgeStyle=orthogonalEdgeStyle;rounded=0;orthogonalLoop=1;jettySize=auto;html=1;exitX=0.5;exitY=0;exitDx=0;exitDy=0;entryX=1;entryY=0.5;entryDx=0;entryDy=0;entryPerimeter=0;strokeColor=#FF3333;" parent="da2mFbJtw7ZfNC7TPq2f-1" source="da2mFbJtw7ZfNC7TPq2f-226" target="da2mFbJtw7ZfNC7TPq2f-198" edge="1" treatAsSingle="0">
          <mxGeometry as="geometry" />
        </mxCell>
        <mxCell id="da2mFbJtw7ZfNC7TPq2f-239" value="Get Code" style="text;html=1;align=center;verticalAlign=middle;resizable=0;points=[];labelBackgroundColor=#ffffff;" parent="da2mFbJtw7ZfNC7TPq2f-238" vertex="1" connectable="0">
          <mxGeometry x="-0.2672" y="4" relative="1" as="geometry">
            <mxPoint as="offset" />
          </mxGeometry>
        </mxCell>
        <mxCell id="da2mFbJtw7ZfNC7TPq2f-226" value="" style="shape=image;verticalLabelPosition=bottom;labelBackgroundColor=#ffffff;verticalAlign=top;aspect=fixed;imageAspect=0;image=https://miro.medium.com/max/960/0*-CIkZ-H9zspjt1HB.jpg;" parent="da2mFbJtw7ZfNC7TPq2f-1" vertex="1">
          <mxGeometry x="879.48" y="45.82" width="78.41" height="44.18" as="geometry" />
        </mxCell>
        <mxCell id="da2mFbJtw7ZfNC7TPq2f-235" value="Source Data Request" style="text;html=1;strokeColor=none;fillColor=none;align=center;verticalAlign=middle;whiteSpace=wrap;rounded=0;shadow=1;glass=0;comic=0;" parent="da2mFbJtw7ZfNC7TPq2f-1" vertex="1">
          <mxGeometry x="500" y="180" width="80" height="20" as="geometry" />
        </mxCell>
        <mxCell id="da2mFbJtw7ZfNC7TPq2f-318" style="edgeStyle=orthogonalEdgeStyle;rounded=0;orthogonalLoop=1;jettySize=auto;html=1;exitX=1;exitY=0.5;exitDx=0;exitDy=0;entryX=0.5;entryY=0;entryDx=0;entryDy=0;strokeColor=#FF3333;" parent="da2mFbJtw7ZfNC7TPq2f-1" source="da2mFbJtw7ZfNC7TPq2f-316" target="da2mFbJtw7ZfNC7TPq2f-23" edge="1">
          <mxGeometry relative="1" as="geometry">
            <Array as="points">
              <mxPoint x="1180" y="323" />
              <mxPoint x="1180" y="-90" />
              <mxPoint x="121" y="-90" />
            </Array>
          </mxGeometry>
        </mxCell>
        <mxCell id="da2mFbJtw7ZfNC7TPq2f-316" value="Publish Metadata" style="rounded=1;whiteSpace=wrap;html=1;arcSize=24;fillColor=#FFD296;strokeColor=#d6b656;shadow=0;comic=0;labelBackgroundColor=none;fontFamily=Verdana;fontSize=12;fontColor=#000000;align=center;gradientColor=#ffd966;gradientDirection=west;" parent="da2mFbJtw7ZfNC7TPq2f-1" vertex="1">
          <mxGeometry x="970" y="291.6107382550336" width="120" height="63.6241610738255" as="geometry" />
        </mxCell>
        <mxCell id="da2mFbJtw7ZfNC7TPq2f-487" style="edgeStyle=orthogonalEdgeStyle;rounded=0;orthogonalLoop=1;jettySize=auto;html=1;exitX=0.25;exitY=1;exitDx=0;exitDy=0;entryX=0;entryY=0.75;entryDx=0;entryDy=0;strokeColor=#FF3333;" parent="da2mFbJtw7ZfNC7TPq2f-1" source="da2mFbJtw7ZfNC7TPq2f-486" target="da2mFbJtw7ZfNC7TPq2f-23" edge="1">
          <mxGeometry relative="1" as="geometry" />
        </mxCell>
        <mxCell id="da2mFbJtw7ZfNC7TPq2f-486" value="Metadata Crawler" style="rounded=1;whiteSpace=wrap;html=1;arcSize=24;fillColor=#FFD296;strokeColor=#d6b656;shadow=0;comic=0;labelBackgroundColor=none;fontFamily=Verdana;fontSize=12;align=center;gradientColor=#ffd966;gradientDirection=west;" parent="da2mFbJtw7ZfNC7TPq2f-1" vertex="1">
          <mxGeometry x="10" y="13.139999999999986" width="90" height="53.62" as="geometry" />
        </mxCell>
        <mxCell id="da2mFbJtw7ZfNC7TPq2f-225" value="" style="shape=image;verticalLabelPosition=bottom;labelBackgroundColor=#ffffff;verticalAlign=top;aspect=fixed;imageAspect=0;image=data:image/png,iVBORw0KGgoAAAANSUhEUgAAAWoAAACLCAMAAAB/aSNCAAABs1BMVEX///8Ax9QArUbkOSEBfO5RUE8R4e4E1ln/dVcMtv9OTUxCQUBGRURKSUijo6IAw9HZ2dm3t7Z5eXjKyslpaGc9PDrm5uXDw8NzcnEMuf8Ab+0Ac+35+fnY2NgAeO47OjgAqj1dXFuNjIzw8PBjYmEAvP+UlJMApzDjJgD/c1MAsv+mpqUS5Pecm5sE2k3kNBniFgDuKQCEg4P/bUkGkvR5rfQM1+QDyVNWv3bsg3nyrqj87evjLArpZljmTjuC3OTd9ffm+PrA7fFt2OEFjPIBid4BukydwvbV5fvB2PkE3EcEtWU/uGXl7/0qtFns+PBRl/HG6ND40c7mUD7paFvti4Lul5D0urXrdmr2ycXlQy2Z4+m36+/9kHvzsqz/hGr63duncYyBiLOxaHxzkMHVRz9js7gsKynOjX7MT1Dfg22SfaCymI9UxP9hmc+PpqRHpOF5z/8InvjEV16IaX+RPzMygqtNQTQhh486cndIUEBNODYqoKkDwYZNPkgDvI8I3toDtJ8DorsEynOxzvgLy68CkNQCm8WGtPUCmMkKyKWO6aeo7b3a9+Oz4cGX1al2yo+zAaHfAAAS+0lEQVR4nO2diX/bxpmGIcmQJQAj8QJJSSApHrpCy3Io16fiJI1y+4js2LHVw2nSrttuu1t7t9vubtMkPXbbbG35T945AGJmMAMORuAhQ29/TQQSxPHgwzvfNzNADONUI9Pdw3v33njj008fPrx6/8GDa9c+e/To88+ve6M+jDffHPUeR6+HezuB9pA2sS5c2Ln36dUH1x7dvT6So3hncfH7I9nROHV9c2dGKMweUZ954/61R8Ml/s7iVAZQG9d3JKxD6Aj5hXtXr90dkq9A0plArcDaj/K9zQs37n+Wfny/CUlnA7VxfUaJNQnwzQuH9x+luntMemrxrVQ3OqnyDpVZE9ybD9OjTUhnBbXh3UjCGuHe3Lx6N5Vd+6Qzg9owkrJGtA+vHX+/P/BJZwi1cS8xaxTaD46Zk/RJTy2+nc55nATd20vMemZmb/PBcfYZks4UauMNHdYzmzP6LSRFOluoNVnPXHio6SI06anFdM9l0vWpHuudPa1k5Ic06ayhNh5uarGeuaCRi7CkM4dam/Xm/aR74khPTQ3jdCZaV3VZP0y2nwjp7KEeEeso6QyiNu7rsv6R+j4EpLOI2ngwdNbfF5B+Z5inNLF6cEGP9YwiaxHpjKLWZb2zq8RaSHoxA8O4Ql3TY3249XjwtoWkp6Z+MPyzmkz9WI/11mDWEtJTPxzFaU2kPtNifWNu63F8h8hbEtKL2UWtx/pwbm5rLo61jHRGRnEl0mI9F89aSjpmEKbcam1rnUATrGv9bgx6pMF6C7OWzV+Qk47prq46oFHROf6GVdL52Vh0NznrG3OI9ZaY9dty0vKOvbZrmlZV5/DdE4RagzVGLWH9thz0lLwu7zqWaTbaGkd/olAbd5PW6IdzUtZxMR2D2rSsogO69EflXJldohoHL/wSo27ncp70pxOlz2WTJ+NRz23t8qwHkJbV5TUbbBvAMslSu9GoVEzXtt2gxdu24VKj6gPMVRvwO7CAF1yr2i7B5UbPh+210C+trjGZSsg6QA1Zf85sJ9495HV5C7hlYxvYNbxUds2m49i2YznYHDzTAbYDF13MutKwgO3CL5sILlwX4HWBhVm3AVx0bGBrOf8IlJD1nJj1ANLSutxzrQ4iDFp4sWybpt0tl/PAtPNwed1xWm3Dy9u44Ww3THu73C42Lbw6bE/t7Vy54i8aHcvueka5CuyFYQI7hhQnqnJRDUWxHkhaVsHkHQchLVkuDkyI2saJX861LPivQqOAVyvg77eBg83Bc6yGh1Dj3xptx0TfFm3fWJqWPRxSx1cS1jTqud1gIH0gaWkF0yGMfeIQtdUkX1SJZ/guvADsMg5bsty17TZCDci369h/4D9JHpN37GL6lNJRgknBDOqAtTeQtCytDpyD+AhCHVSAXeDzKlcWeiXLRKid4DoQ9ZM9eKGK6M6wckjl4LpNpNRZs6gJawXSslwPtoc5/Mc6wEFcDkwA4UNOksfpiAswaq48pFFXkG+YcE0o2GxOqllDXT/cmdnb3Bw8I+fGHMf6kRppSa7nmFaTyASoI4RBDSO1gPKJ7XxuHRuIH/qBuKiGqJvBxrQK/RHJu7H5ky+++HLn9QHhvTsXYa1CWpLrFW3TAkSW6Ri0gSwg/624VgG7M0HdT7+NMroFONRVyxkuo7TU/s3a0tLa0k9/9nos6i0e9dzuP6mwFvdWVy3QaxGVLOTNsFn0acL2sm30gN8OwqSijNzYb/hajSflCOp+cm60dcr80WltHmtp7YvYPDtCem7r5ypR/ZZon203bOfKMIBxskfyuQpORVo4mBFL7NVdh8Q8LHRQOsehhvkhqV1KjSeTzHppPtDS/C9iAluA+pcqqIU77QIqVehYjTZCbdmFSmXdNl1Ir+haZj5Xa9kkA/GA5RQqxS5sJJGjc6iNAgDVWrnYAWCSu6FC0lBrP5GyPtSManECYoFG2FWUt2E8QwOpOlDAIp0gLReX3k4pSFAcgL51e+jLBugEP8V1j9eBjagN/18a+WPd6lqbZ7T2hYw1n4Ag1AsKpMUJSKFE9Qx51VIeNYvddg807JKfQ1RKtmv1yrVOFePztpsw8ysU2Z/XSiXSHZWHazvVSU4/fj3Pae2nEtbRVnFuN75Hj0h1ZkKY7L2aipCWs061VRToFUctIC3zEIFVKwW18jT2Vxv1r18ToZ5f+2cB66hVb/1KgbT6fL1yw9YbPT8JkpCGrL+MDoZFrHrrsQpp9UlkXq9XG+bZjlNS0jDB/kWkltGzjyw9iCtXDGkovvcp4h9qRXk2Z7Fziie99C+cXfP+sfuvaqQzOrWaVjxpVDayds2TVilepjI+XY9oEGkY1z/bkfuHKunsPbEY0dOBpOeXfvO61D9U3ePUP1RIcxbCZHlbii3iGP2jnatBkQG1NvxrXPOeCOmlvmRxHb6KiPaPrcdKWR7ROE6v3S25ro3UQOVn7Qn868l4xtEh6aWl1549u3hxH+rixWfP0AdR4FQWQpuHUsepH9QpPG+UKyG11H+w3UCTLrHweEHegX+Np+Z/Or/07OKZer1+xlcd/b2PeXMW8m87fP/HlrpNT6m+ByS/jrQtGT2pAgvKVe4dLTlmX2NG/fQ1yPlMVJA3xM3Q7reM/UZx95cJzEOxUcw38FiuY4m/ruIQVZ7dUQUhaROMFfXTiyLOfd5nLtK0177co/1jSznH84P6LZUjMv3bXTItKRnqik0Y2w6+fGiT40L9tB5HOkobh/WuD/rniUJ6Sq1RrNnB3d4Tfp8MdROvbfdy4UdjQv3+8gDQPm3oJH7CtxcE9e5j5RQvUVC3+nd8QzgsWHUSeHXZxTHNdMaOB7UaaUx7/xkJ7dd3dm7gXDpJc0ikVr64fWcVR26uiqT4PBfGalrRz0aNWp00Ce35pfm1f//tbxFopVEALqiV0o8KhoMjm50AqaVttCHuObtxoP4wCWkEu37xtf/4neOAuV8lNWlEWm1MoITMFeQxazc3eP149UD07hgD6lsJSWP9DrXjv08OekqxUCTm6hrrgnDUUAFdOIdNZcaAWgO0j/o/NUArvsUQ3/Ew98jhPOTYM/4nA/X3BmV5UdWX3/0vmJ/+9x80SCv2M4Ego8ZZmnPcGTMTgfqD5Pax/O5XH70H/vjH38/OXkpKWnHwtoiDGT1rgYEc+7nPZKjbtUo+n6/UUp5QuZ8U9Mr+1+fPnj373u3Vb2ZnE8JW7mbCaDCGNjFtQWfneqdU6hTZ5RJuQNuV9QL8u9OF1wx3SpVILdQs0WqaQtTl7aZrozmCju02F9j9LqBd8IeC+734hruG9s82w39ZSQj6zLfnEenL09OrH5+bnU1EW5k0zTekzp1hA5UwFruM5pu2e66Du6LQNNYm+cuvOxmZItTlqguC/j/4A+D2qND28C741BOVUgBwH+I9PGE+SmbU9eU/nUWgYVBPT09vfDM7mwT2ovLQS5dyjdBLONSkcGeXrY5RdPtlpl32C3K5ONR5l18f0PUo3hp3h5EOBJsNa5xAsS8keD9RUC+/+2cC+uxZSDoMa0Xa6oNcJt0WOkELqYK6lGuEmBKjXneDaMaPhxC54dTYBUF6jnOlyCVzIismCumVbz/yQeOgpsNagfYlddIkUFz6XKJ9TkLUZtNnFRhI1cW267uFQyuKqEs2adlmb6G70LNs8jM3z+yDe3sG6YC0TOZDXIC5dLOaxKlXwpAmQQ11+9wsq0sy3JdmEwzctpi6hVQzkT4nMWqCyu7gDhIYjl4FqUhqz4UKLVIdUahr5Iawq4EZFJtkOKHRtwyM1aUPJdgtYyse9g/G1PcTmMcfQtCoUSRh/VeetYj3pUvwwwSk8YFS7texordtDGq7Gp3ip5Tskfh06ZcstEg3Vf95PXx5GDNb8FsG5pUauAOH+UQ9p67Xv6JI+/6B7FpAOiR+CUMmimPLiaTSTekykQy1K3ofhQpq0vvHPUna69dSWLiNBvSAZtAYMI9P4tuSaSmVC8X6/mWadOAfEPVXorAWSMpVIBLFFDGS+nGpqwS1+KFbFdQYWqRYIk7ct2e+M5akGnxiQnol6c2oOvXK/zCgw6COtIxpkPa9mWpTWqI+JzFqrnkKpIA6R2yLNx8S6/0Wrmex8doF6EKgpoByOHwozPF+qIh6+X8/YkiHQY2UNmk/4yhQn9REfU5i1JIBMAXUXSC8Uh7ZbJBc8y6M7kCQx8DD+2Eh4uiK/hEhfZkmrWIhMqhiCfJoJs/2JUZti6crKaAmVWm0u7bKfE5yi74v4zvQLeN/hfchqXTojagF9QpPmvYPbCGDWMuYiiWqDknEsfmsBLX48UQF1E1hnhPcZP19V5mMGW0DNdgm7SC4W4EpBNT8Y+XvPGnWP+KzkOSk/Shin35pNxjDxEobNZtqcKuF+Q9bByKTRnayAKjLQVah78G/qfhH/d3zPOnLPOqPY8NaDlUocU9eNdrnlDJqT9SVgVRkkw6SchSog0XHincelDZ4Z0zJta8S1PXLPGnOPxDrr2NYx2EViXgFn3IJXCVt1K7E6kmbHL7rAhuNHW6CBDzdmLj8GSgNKS5/HQlq3j+kRaMWab8FjFimHcnERos6TH/o9ALdbGQLyNH9WMdhwZyBilXXo0YtQi1vGuVIJeJjiDlBQDc1KaNuq6KmkmZ8eUhpRTkILt4ZB1RJ9Vai9hGx6jjWMUwlIoWwWahywv1FjAGOK6qxV5D8GyXZQSYO+g4CTI2upvqfovYRtWri1yLWingpeUGHcUT4Y/q2HFmzyDcTYdSirQa5EvoU33Uk6pkWXMGql/8cJS3yDwlrjTdw5KlJ0ALRwZJ2sudEWgMiXB/SVWTfi/HVCS4ODn5UtnQjXU0fKFj1vsCpZaijbaPOu046AwZNqD6ntFGTia3RWRD04BuR7X9ALkLwKVpArSXpLKO3oDDUVf+7wD+EVk1Yf3fuuKRJT5PAPgILoQrntFGT0YNoD2wrMgiEu5xgE4jalbDWQuuBFmlemW5WlVZRiFps1cRDPp4NYWv9p1jXyXTIkkj+DOn+ummjXhcU/0ikkYh0/MP4txnHwQ7ikC/ZonN/sH8IDSQG9fTq6nc+7HN6/9Fbh4tcWiQbC+/wtFFX2N5SbrO0h3skcDFbqrnEjHO9SFeTSqt4ZvlblQKGgT393Tfnzp375qXwhAfJP1vJs4S4OA/DLm3UJAUB/KtHCsS4okditiw2LLCDrOODpHuAjVsqfU31W/8XYR2PGsLemP749sbGFTGueBGYHcm3XNiljToY22IvdFF0AfyJ8Vy041UFT40o1Yq3DCPCehDqgPhNCbAY+RYhfbqFnHXgmqmjJm2yZdEW4u+Es5Vy/4kGJtPoD9mzq7+v0CreQivyrBVRT6/elhGTqkvmrUtTF7/RZClwVI6B2n/6xgLhank72igiBWO3bKbhV7p8Z9ngBISQNox/MKzlud7xWeO7D8ifry0zo3/po/b8x/fsTj7X9tq5rj8NJPriyWBGAptpFP2w5q7MJ4NQr9wKVmVYq6NOzLoWbes54eog6HNKHzV+0S0OS8d24f/8qWSWGdlmMBGCG+4Uzb4ZPINs5YNw3X8IJtsosZ6+I8cWVU88jsrDCRxmCKiNskU/s+vHaFOwSUvgH4GD8KcwINejSTOsk6BOyNoV2iItD497+e2mPxmh/2VtIGp7IGrD67ksbNAQZvmk2XC54bGKKF0ZMC7AkjaMF+e1UCdjbeIXSMTW8+uN8L0SbfR3IyyY8bIryRS38cpsHiF+SUWuh5zDslDvALDtljjJb6NjdSMe3sSnwO4mvrNp+QN+G33WyVAnYu3VcrnagJ4T/J9ooNanO9Da3DL/w8jzFuVaTvTqFa+4UECPGZR6XfnLQjzqQLjj404hdgpqlLRhHNATqxPBTuTXr6Di0moR6ZB1UtSZZx0zMUFM2jCen9dDnXXW8gpm+UPZbwjruJ49iTaej/LUJk3SCkZOGrLWaBdPWe9rkPbjWgP19MbBqE5s8iQJ6njShnFHE3WWWYsrmOW/DPrdHT0HyTBrT4h6MGnMWgv19MaL4Z/WJEpYl6uQRqw1cpAMsxYNd6mRRqxXT1mrS9AFsvy+8q/fO2WtrujIYgLShnFbl/XR0M5oYhVBnYj0KesE4jv2EpI2jJunrBXFdewlJm0YVzZOWSuJRb38N41NHOmy1pv4dGLF9KGu6JA2jINVPRPJGGsatSZpWHJqmki2WFPd1dqkoQ6mtWBninWIeuV7x9rQCy3Yq1qTJ0+m+qiPSdrAsJN7doZYB4MwxycNdXAlOezssPZRp0Ia6s7R7aS0M8OaoE6LNNKdo5sbibI/nQnYJ1GfYNKfpLvROy9eTifArTEB+yRqfwiksSDumxuQtwrwbLDeHxJpoucvjq5Mbwwmvnpb59nGE6b9M/Xhkfb1/ODo5ZXbqxuEuZD66vSwD2L8+mR56KT7uvP84MXRy5dXbhLsvjD91Y1Xf46ZN2C+x9B0B+r5wcHBC6Sjo6zOWDhV+vp/CZbNZMTKfGcAAAAASUVORK5CYII=;" parent="da2mFbJtw7ZfNC7TPq2f-228" vertex="1">
          <mxGeometry x="800" y="50" width="78.13" height="30" as="geometry" />
        </mxCell>
        <mxCell id="da2mFbJtw7ZfNC7TPq2f-231" style="edgeStyle=orthogonalEdgeStyle;rounded=0;orthogonalLoop=1;jettySize=auto;html=1;exitX=0.25;exitY=0;exitDx=0;exitDy=0;strokeColor=#FF3333;" parent="da2mFbJtw7ZfNC7TPq2f-228" source="da2mFbJtw7ZfNC7TPq2f-222" edge="1">
          <mxGeometry relative="1" as="geometry">
            <mxPoint x="840" y="80" as="targetPoint" />
            <Array as="points">
              <mxPoint x="840" y="80" />
            </Array>
          </mxGeometry>
        </mxCell>
        <mxCell id="da2mFbJtw7ZfNC7TPq2f-234" style="edgeStyle=orthogonalEdgeStyle;rounded=0;orthogonalLoop=1;jettySize=auto;html=1;exitX=0.25;exitY=0;exitDx=0;exitDy=0;strokeColor=#FF3333;" parent="AGjHTBhYZpKcEaoJQLyZ-2" source="da2mFbJtw7ZfNC7TPq2f-53" edge="1">
          <mxGeometry relative="1" as="geometry">
            <mxPoint x="320" y="358.13" as="targetPoint" />
            <Array as="points">
              <mxPoint x="595" y="278.13" />
              <mxPoint x="320" y="278.13" />
            </Array>
          </mxGeometry>
        </mxCell>
        <mxCell id="da2mFbJtw7ZfNC7TPq2f-240" value="" style="shape=image;verticalLabelPosition=bottom;labelBackgroundColor=#ffffff;verticalAlign=top;aspect=fixed;imageAspect=0;image=data:image/jpeg,/9j/4AAQSkZJRgABAQAAAQABAAD/2wCEAAkGBxAPEBUSEBASFhAWFxYWFhgYFhUXFhYWFxYXGSEYFRcdHSggGB4lGxUXLTEhJSorLi4uGB8zODMtNygtLisBCgoKDg0OGxAQGy0lHyYtLS0uLS0tNy0tLS8tLy0tLS8tLS0tLS0tLS0tLy0tLS0tLS0tLS0tLS0tLS0tLS0tLf/AABEIALMBGgMBEQACEQEDEQH/xAAcAAEAAgMBAQEAAAAAAAAAAAAABQYDBAcBAgj/xABKEAACAgECAwQEBw4DBgcAAAABAgADBAURBhIhEzFBYQciUZEUFXGBk6HRFiMyQlJTVWJygpKisdIIM1QkQ5SjweElNWNzg7LC/8QAGwEBAAIDAQEAAAAAAAAAAAAAAAMEAQIFBgf/xAA2EQEAAgECBAMFBwMEAwAAAAAAAQIDBBEFEiExE0FRFCJhgfAGFXGRobHhUsHRIzJC8RYkov/aAAwDAQACEQMRAD8A7jAQEBAQEBAQEBAQEBAQEBAQEBAQEBAQEBAQEBAQEBAQEBAQEBAQEBAQEBAQEBAQEBAQEBAQEBAQEBAQEBAQEBAQEBAQEBAQEBAQEBAQEBAQEBAQEBAQEBAQEBAQEBAQEBAQEBAQEBAQEBAQEBAQEBAQEBAQEBAQEBAQEBAQEBAQEBAQEBAQEBAQEBAQEBAQEBAQEBAQEBAQEBAQEBAQEBAQEBAQEBAQEBAQEBAQEBAQEBAQEBAQEBAQEBAQEBAQEBAQEBAQEBAQEBAQEBAQEBAQEBAQEBAQEBAQEBA8MwK3r2uNiWc1hYoxCU01oGvyLNtyF3PRR03Pd37kAdU7RHUaL5GsXHdmx8ND3IAci7b9Zt1RT8nNOLxHjePSe7tMz+n7pKY5s+e31XH9ZbqstR1at0FNjDx7OxTy77dwYAeYlHSfabFe3Lmrt8fL57y2nDMdlh0HW6c2svUSCp5bEYctlT/k2L4H6j3ienpat6xas9JQ9knMhH4j2ZCAgICAgICAgICAgICAgICAgICAgICAgICB5vAbwNHV9axcNQ+TfXUp6DnYAsfYo72PkN4FVzvSAlzDH06m6zKsB7NrKbK6FXxudmA5kXfw7zsO8yLLmpipN7T0hmI3lGaaNs8sbMrJy0Tle9uzSpVLElK1C7KNwdwPZ1Jnl9bxTPbD4kWisT2jpv8AOJ7Jq0jfZa8nI2Us/wCKCTsNzsPLxnlsufJqrVi89e2/b9k8RFezypiygkEEjfY94+WVr1is7R1bIPiDBrq5sxMgYuSo/wA4sAjDfolyn1bF8j1G52I3nd4PxPUYskYqxNqz5f37boslKzG7DX6QnysepcNE+GMeW4urvRQVOxPMCO15ztyBTuQwPcDPcajV48FOe35ef5K0VmZWDhniZciuxck1VZNNjVWrzgKSAGDpzdeVlZT7x12kmDNXNjjJXtLExsmfjTH/AD9X8afbJmGem5XG6MrD2ggj3iBkgICAgICAgfNlgUbsQB7SdhAw/Dqvztf8S/bA+q8qtjsrqT7AwJgZoCAgICAgICAgICAgICBXNc4ifGdlFPMQUSscwButsBIUH8RVAYs3XYKekjy5K46ze3aI3Fa0njnJvx2RUrfUbMm2ilQrLUqoqMbTv6xrQON2PeeniIrkiaRfynqzs3/i7G05Gyb98vOOym1wC72OQFrqB6VKWIAUd3ed+pnInidMuaMNOs/Xm35No3luYWA1Aey5ufMt2a5/Abfg1VjwRd+g8TuT1JnE49r+a0aek9O8pcVfOWTFxRUvQett18z1P9TPOZM05r7TPTdLEPnSsoX49Vn5daMflKgn65nV4vBzWpHlJX3qoPVtHzrs2q2vNaqisqezCgoyjfcN13Zm9vcJ09NrdLj0lsdse9p36+f7dGk1ndL65jvbUa0CHm6HmXmHXp+Dv5k/N5ylw7Ljx5ee/l2bXjo1uFtLXGxxXyr97suCELy7L2r7bDw6Sbiustmy80TO0xHTditYiHGPTDhc2sBEHrWpV87Fin/QT2P2dtN9HWJ8p2/ZXz7VmZXfUOGNNoosc4lO1dbHcr+Svefnnsb6fHWkzs89j1eW+SK7+a/+i/Tfguk4icuzNULWG23rW/fNiPLmA+acl3VqgICAgICAgcv/AMQupdlpa0jvvuRT+ygLn+ZUgUP0Z8M412EbcihLGexuUsN9lXYdPn3906GlwVtXe0OVrtVel+Wkrp6NtFoXWMt6KURKKKqvVG33y0sx+fZPrEraiK1vMVXNLa1scWt3dYkCyQEBAQEBAQEBAQEBAQIXinRzl0Fayq3qy2VMdwA6nuYgbhWUsp7+jGR5KRkpNZ7SzE9VL9H+lmm3KssUi6pkw13sNvKqILTysQNge1UdB+L5zz/GtVk02minN1np06dEuOItZK8So6rTkIpc41wuNf5ahHQ7frAOWHmvnvPO8E1dcWe0X/5Rtv8AHv8AqlyV3bunalXlA2VHmq8H8GYjchfbtv189x4SlrsF8V58WfemW9Z6N1e+Ud9m0wguDD/siqO5HtRf2VtcD6gJ0+MR/wC1b5fs0xz7qbLAd57+7zPlObFZns2ezVl50UewCb7WtMR3k7OIZeQuo8SKybGunx8D2QJ3H77T6l9n9JOLBSk956y5OvybY7S6HqWAmTU9NnNyONm2Ox2+WesvWLV2nzedxXmlomO6DHBGMBsLcvYf+vZ9srex41v2/MNwTj/nsv6ez7Y9jx+RHEMu6B4b4TY5WVXkZGRZVUUFZFti78wLddj3gbe+QY9NXnmLeS1n1lopW1Y7rH9xmL+Vlf8AEXf3Sf2TEq+3Z9/4PuMxfysr/iLv7pn2TF9Se3ZvqAcIY46rblq3gRk3bg+0etHseMjiGVV00HO1DOurzM/Isx8dlTfnO7bqGVQB0B5SOY98qU0szkms9oXsut5cUWiOsrCvAWD+Tf8ATWfbLU6PFCj94ZvqHj+j3T2/CrtPy2uf6mJ0mI+8M+38J7TNPqxaVppXlrTfYb795LHcnv6kyxSsUrtCpkvbLbmt5qNoPC7Z1t2bdfalV1jNWlbspZASAzkeQ6CUcen8SZvZ1M2q8CIx07wnvuIxvzuX9PZ9sm9jx7q33hm7/wBj7iMb87l/T2fbHseM9vzfUMeTwoaEazDzMuq9AWVu2dhuBvsyk7EHaaZNJTl93ukxa+/Ptbsg+FuHcrPQZeoZuU3absii19+U/jE79AfADbpItPpeaOayfVa2aW5Kd1g+4jG/O5f09n2yz7HiVI1+b6g+4jG/O5f09n2x7HjPb80d/wBmhrfBKdg5x8nJW1VLLvc5UkDfY9em/tkeXSViszVLg195vFbebHw1wlXdiU2X3ZRtdAzbXWAet1A239m0xh0lZpvbuajXXpkmK9kn9xGN+dy/p7PtknsmJF7fm+oDwRjfncv6ez7Y9jxn3hl+oaudXfohry8TJyDUtiLdRZYzpYjsB0BPRuvQ/wDeV9TpopHNVb0estlty2dzEoukQEDyYHPuGNQrtytRStt1+Fdqp8GDVJUSh/GAelhv7Z5H7VU3rS0eW+6fB5wsFq7qQO8gj5Ok8hivFbxafLZYnrCs6RqYwaExsii9baxy7102WV29fw0ZAR6xJJB2IJ6+2d3VaKdblnPivE1n1/4/Cd9u3wRxbl91sG/Pyf8ALAxq/aVWy4+fU8ifJs0gimi03+735/8An8pjdn3p7NrAwTh4wSsglAAOb8bbp6xHiTud5Vy541Wo5r9p9G0RyxtCt6pxWMzT8g4q2LmoGFa/j7izkNlJ/HUEHqO7bY7TtabhF9NqaeJ1x267+X4SinJvHTu1eCNU1zJIpsNBuVGssFtZVq13VU5yncz/AHw7Edybzq24FotRaZrExHw22/byR+LaG76QcfU6NNvvvyqakRAAtKsXd3ZUA52PQbt12G/nLGl4DpdPfnjeZ+O3+GLZZmHPvQ1h72X3HwVUB82O5/oJ6rQ1jmmXJ4lfasVXrOwmztRxcIW211lLrrTU3K3KoVVG+3TqTNtbkmJiIlFw7DW0Wtbqp/pexfim+mnEzMwsyM79pdzbDfZdtgNu5vdKXi3nzdKMGP8Aphd+GGtbDoNzE2mtSxPeSR4+c7GGZ8ON3n9VFfFmKueV6Pn6lmZN1FzU45tZQ/MwD8nqeqoPXovfKMY8mS9pr0jd1LZcWHHWLxvOzf8AuA1D9KN/zP7pL7Nk7c6H23D/AEH3A6h+lG/5n90x7Nl/qPbcP9C/aZQ9VNaW2c9iqAz/AJRHjLlI5a9Zc7JNb33r0R/Cm7UvcR61111n7vOUX+VF98j08e7vPmn1c+/FY8o/l86DoHxzlZZuyMlMfHdKahS/IC/KWcsdjueq++c/UZrTedpdTSYK1xxMx1ly/Nss+N2xMbJyDQuQal5rWLFUblJJG2++xkdMl7WiN02THStJnZ1niPJNGHe6/hCtgv7TDlX+YidfLPLSZcHT1i+WN2bDqXFxkXuWqob/ACKvX+kxWOTH8mLz4uXf1lq8IcFtqeHXm5WdmJZfzOEqcIiJzEKFXlPgJyLZrzPd366fFWIjlcwx9RyV1gY+Pl3vUuT2Y533JRX2bm8D6oM2x5LzeI382ubFjjHM7eTqfEuQa8S4r+EVKp5s/qge8zrZp2rLh6avNkiPn+TMAmLjAdyU1Afu1p9giPcp+EMW/wBXLPxlrcJ8DNqOHVmZWdmrdevaFa7AiKrElQo5fydpx5zXmd93oI0+OI25XL9F1PJbVxTTlXvSL3VeZy3NUrN1bwO6j65vgyXm8Rui1OLHGK07On8V3FMO3YkM4FS7d/NawrG38X1TqZ52p+jj6Wu+WJ9Oray7VxcZm6ctVZP8C9PrEW9zHP4Na/6mXp5ygU4OKaL8YX6hnC74ObiosHLzEbqACPMePjOPOW/q9B4OOPKFY9E+o5eRkW9rfY9S19QxJ9YsNiN+7oGlvR3va/WVHiFKVpG0dVz4gq+EZWBifnclXYe2ugc538t9vfJNdbasVQ8NrM3mzsU5jskBAr/HeLkW6dkJjFhcU3AU7MyhgWRT4FkDAHzmOu3QUz4xxK6sfMxNhRSvZWoo25KSRurL4MjAHY9eh9s8P4GfJky6bUb726xP4b7fJZ3rERMLnPL2jadk/wAVbv40xau17XtQKnZHbsrDWCD0++bcu+xXx8Z3KcB1GTHXJTba0bopyxCR0DWFzazbWrivfZC6svONgeZQQCR17/KUdforaS8Y7TEztvOzetuaOjBxVndnTyL/AJthCIPazdB7upPkpknDMEXy89u1es/hDF56I3g/h/FtsysW2sNXU9V1R6q1b21bOUYbFeYpudj+MZ7/AIZnnPpotb1mP1VbxtbZftK0mjEQpRWqKTudu9j7WJ6sfMy/0aOaf4i9R5MCmgd9twJ/ZrUn+pHumRA+ibC7PT+fxtsd/mGyD/6n3zraKsxTdw+I25su0ei4ej6nttUzsg91SU4yfKd7H/8Ax75S1Vt8s/B0dDTbDHxck9KmX8O1+ysdVV68df3dgw/jLyvWN5iFm1tqzLqGp5AxcWxx3VVMR8qr0+vady/u4/k85jjnzRv6vdCwvg+NTV+QiA/Lt1+veZxRtSGM9+bJMyqGfrWvC1xVgp2YYhegO6g9Dvzdd5Utlzb7RVeph03LEzZ84esa+1iK+HWqFlDNyj1VJG5/D8BMRkz77bMzi0sRM8y38QZJpxbnUbsEblHtYjYD5yRLWa3LjmfgoaasWyxHxZtLxRTRVUO5ERR+6oE2pXlpEMZLTfJNpQnCPEObpdFtPxTdZY911psFtYVmc9DseuwAX3TkXwZJtM7O7TU4YrEbqZwJwrmJqC35VDIq878zFTu5Gw7j7W3+aTabBeMkTaEGs1WOccxWeq+cTDnONR+dyKyf2at7SD8vJt88u5+u1fWXP0vuxa/pH8Njiiq2zDvWkb2tWwUeJJ9nnNs8TOOYhppZiMsTY03ju3Gwq8avR8zeqlalJNYG6oF3J337x3zkeBk9He9pxeqgejzhbLTM+E5VRQKHI5tt2d9xuB8hPvlnS4Lc+9lPW6mk4+Ws7zK88Qeu+NT389wdv2aQX3/i5JczTvNYUNN7sWv8NvzOMce63Avrx15rXTlA9oLDmA8+XmmdTWZxzENdJatc0TafrZsJ6QL6sTsKdIzFdauzQk18oYJygnr3bzk+Bk9HcjU4v6nP/Rnwpk05RyMio1qiMFDbbszdOg9gG8s6XBaL72hS12px2x8tZ33XjXB2l+JT4G02t+zShYfzlZcy9bVr81LBtFLXn02/Ng48rufAsrorZ7H5V2XqdiRufcI1MWnHtBouWMsTZq8d8TZGdpvwHF0vLrB7NSX5NhXWQdhyk7k8q/NvOVGDJ6O37Ri9Wv6MuH7cKh2vTltsYHl6bhV7t9vPedDSYppHWHJ4hnrktFaz0hY+GKu314n8XFxf57m+wD3Srrbb5F3h9JjFv6upiVF8gIHhgc89JHClLCvJpwi9nb1PkGobWNUh3J5AQLDuF7+uxMhz0tfHaK95iYjf4sx3YdR43whWeXJVH2J5bA1b93dyOA2+/lPA04JqqZtr03jfvG8x+ey14tdnp4Ztt0OoqhbML1Z7o/8AvbuYWtUwPTu9UA+wT33g1ri8KvSNtlXfru+ruMqOwW6vchtlCd9psJ5eyCd/NzdNjPA04HnnP4Ux8/Lb8lrxI5XxTwtq1tgybHxVcqQtL857EN37uvRnI23IHTqASOs9XHBcVcHg1mY9Z9UHiSsHCfDd+NkXZOTZWbLErrC1huRVrLHclupYlz4dwEv6PS10uKMdZ3a2tNp3WqWmr89+ny+zL1SjEpVndKuir1JZyTtt7eVR75re9aV5rTtEHdvaLrlmLVTifFmcbUqHQIu7BdgWA37tz9cu6XiOC+OPDnf8HLz8PvfJNkvwNxlj6erY2RRlfGF9tl71JUWYc59VT17wir7pTy5a13vadodKldoiIcroW/G1ZMjMxbw1lz2hOX13ZixHKD3+uwmun1eG3+pW0TWPOGM2ObUmkea8cV6jmZeJZRTpmcrvsN2QbbA7nuO/hJc3G9Jau0ZIUtNw++PJzSkMHiLM7Ne30nN7XYcxRAVJ9o3IIm1OPaTaIm8I8nC7zaZqjsj0mY1bmt8XKWwHYqVUMD7Nt5erxDHaN47Ifuy/nKaq1/IdQy6VnlT1B5E/6tKluP6Ks7Tkjdv905Z+v4RHF2TqGVjGqjTMxHLoxLqmwCNzeDHxC/XIM/HdFkry0yR+azpuH3xX5rej60Pjl8lNhp2U9ierZ2ShlDDv6kj3S5bi2DFWPFtt6K9+F2tbevZJ/dFf+idQ+jX+6R/f+i/rhj7py/X/AExW8V2IyK2mZ4awlUBRd2IG5Cjm69BvJcXF9Pm3jHbfb0YnheSO8x9fJD61n6jZl419Ol5grp5+dXr2Lc45Tttvt6vd5zGTVb3i0eSxi0XLjtSZ7rCuv3bddL1Lf/2VP180sRrqbdYVJ4bffpMPfj+39Gal9Cv98z7bj9JPu7J6wDXLz0XStRLeA7FRv8/N0mJ1tPiRw3J8FW1azWqtQqybtNuFSKyrWuz+o+2/rLuOboPdKs6q05Iuvxo6ximnqsi8TuR/5bqP0A/ulr26noofduSO2z6HEdn6N1H6Ef3TPttPST7tyesfXyYNR4v+D1Nbbp+eiLtuz1Kq7k7AFubp1Mx7dT0Zjh2TfvH18kXwNq1mpZd+U68qVoKql7+UMeY7nxJ5V3mNPecuSbyzq6Vw4oxx67rFq3ECY1q0ijIttZC/LSgchQdt26jx390ny6iuOdpVsGkvmrMw1vunb9G6j9AP7pF7dT0lP925PWPr5PurWsq/1MXS81rT0HaItVYPtdy3QTW2urt0jq2pw22/vTGy8cB8LvgVWPe62ZmQwsvcfgggbLWn6qgn5dzOda02neXXrSKV5arTNWxAQEDzaBhsxa2O7VoT7SoJ+uYGbaBGJw9hreckYtAyT32dmvOfPm23384EpMhAQOB8KN8P4ozMo9UpNvKfDp94T3oCZwftFn8PRTWJ62mI/VLhjey8aVreHXq2W+Rl49Rqqox0FlqISTzWsVDEeLqPmm32fw+FoqzPe07/ALR/YyzvKj8AW/GHEGbm7gonPyEdQQzCtCD5opMj+0mfw9LFY/5TszhjezJqLHN4rqr70xVBPsBSs2b/AMbKPmlLFMafgs2t3tE/rOzM+9kX3Kzsy3NbFwxj/e6Uusa3n2Bd3UKOU+xCevtlTg/B6avT+Llmes7R3/y2yZNp2hBejvje7VbchLKq1Snl2ests3MzAdGJ7wpMh41wvHo6VtjtPXfp9SziyTaVfrxkzuK7CVBTGQE9NwzpWqgt5h3/AJJ0rZL6bgsTv71ttvnMf2abRbIuOqcROMx8arIwaOyrrZ3yn25ms5tlRQ69yqCT+sJW4RwTFqcHjZpnrP1LbJkms7QrPG3HGVgUqUytLyGtLJtQXZkHL+EdrDt3zsY/s9pKWi0b9PjP+UU5ZnosuDy6RowYKOaqkOwJ5Q9rbE8zeG7t3+Anl8nNxDiPLvtEzt+ER0T/AO2m7EnEF5A/8R0ME7dO3PQnw/zJ6P8A8c03rP5z/lF41k3pGi5lmZTlZVmKaqq7OyFPOd3tCjnJYkbcnN3e2dHQcNx6Pfk36tLXmy5TotCAgIHm0D2Agcq/xDZjjAporVibbt22BPqVqT12/WZPdAo/o61fGwsQpd2q2s7Mw7Kw9OgHUD2S9pc9Mddp7ubrNNly23r2dA9GbjL1DMzFDdktdOPWWVl3/CdiAfM/XK+oyc95mFnS4pxYorbu6bIVkgICAgICAgICAgICBH6/njGxbriduzrdt/MKdvrgce9BOFtj5GS34VtgG/kg3P1sZ4z7UZea+PFH1usYI23ssWVxDi9k2U+mXtQN2NxopKlQdubcvuR075jHwHXRSNsm3z/knLX0SfCWr4mZQcjFq7Orcqd0VCeTx9XvA3P1zjcS0ufBljDlvNpnr9dZSUtExMwonojrOTqGoZzfjOyqf27CxHuCzvfaC8YtJiwR8J/KEeHvMrXTqHY4ms5/jzvTUf1aalrBH/yO/une4Th8HSUr8/zQ3ne0oL0HYQp06y9v95YzfuVjb+vN755r7R5fE1WPDHl/dPijasyw+hqs3W5+a3U23FQfIsz9P4h7pv8AaKeTFh09Z7f9MYu8ys3xlRkk2JpORevMy9oKKWDFGKHYs4JG6nrNcPAtb4cbZNo27fUk5a79lL4z4Kzs+34XiYBqSns1Wh0rrezvZnAVipG/KNid+s9Lw7SX0+DkyW3n1Q3tvPRel1y80/7RpGaPV++Ly0ug2HXqbPWHTxAnm7/ZnPXJNqZPntt/dNGaNtphrcJatpmqrY2PiKBWVDc9Na78wJG22+/cZzuI6fV6Ga8+SZ33858vm3pNbeSb9HNYRcxK+mMmXYtKjuQBVDqvsAt5+nhPc6C976bHa/eYjdWttv0XGXGpAQEBAQEBAQEBAQEBAQEBAQEBAQEBA5/6ctU+D6PaoOzXMlQ89zzEfwq0Cr8LajRhaAoS6o5BpdwgdeY2278q7b777lZ4zWaXJq+KR093fbf8FitoiiS9K1g0/h2vFU7FlpoA9oUAke5Z7NXRularjYHDwC309sMdm5RYvMbLN+mwO++7TxmbT5tRxaLWr7sT+kLMWiKbPn0N5GNjaaDZfSllljsQbFDbD1RuCfKa/aHFmzamOSu8Vj+TDMbdUhk6DpllTUNqdvYMzOaxlqKyzMXPq77dWYmZrxTiVaxWKdvhDHJSd+rX4p4h0/S9LbGxLkLms11Ijh2Bbf13IPTxO579uk00Wi1Ws1kajPXaPOfw8mZtFa7Q1/R/qWPgaFzm6rtuS67k515y3rcq8u++5Cr085JxTS5dVxKsRHu9I3YpaIo6jwfgfBsDHpPVlqTmPiWI3JPmSTPZK7kNPE1+dr2VS+pX0YVZsChbuzXesrXsp823MocS1GXBg5sUb232bUiJnqtF+LiWKyPrWSUYFWBzRsQRsQeviJ53724n/R+kJvDo+dGs0rRsdkxrVcsxYIri262zYAKiruT3DuGw6mU8uHXcSzVnJXpH4R08/NtE1pHRcuBtMsxcGpLgBe3NbaB12ttYuw38di23zT3dKclYrHaI2/JVT83CAgICAgICAgICAgICAgICAgICAgICBgy8Kq4AW1o4B3AZQwB9o3gaq6Fhg7jFo379+zTv90DZy8Gq4AW1o4HUBlDAH2jeBq/EGH/paPo0+yA+IMP/AEtH0afZAfEGH/paPo0+yB9/EuLy8vwanl3327Ndt/b3QPkaDh/6Wj6NPsgSAECPbQsQnc4tBJ6n72nf7oHnxBh/6Wj6NPsgZsbSseo81dFSN7VRQfeBA3ICAgICAgICAgICAgICAgICAgICAgICAgICAgICAgICAgICAgICAgICAgICAgICAgICAgICAgICAgICAgICAgICAgICAgICAgICAgICAgICAgICAgICAgICAgICAgICAgICAgICAgICAgICAgICAgICAgICAgICAgICAgICAgICAgICAgICAgICAgICAgICAgICAgICAgICAgICAgICAgICAgICAgICAgICAgICAgICAgICAgICAgICAgICAgICAgICAgICAgICAgICAgICAgICAgICAgICAgICAgICAgICAgICAgICAgIH/9k=;" parent="AGjHTBhYZpKcEaoJQLyZ-2" vertex="1">
          <mxGeometry x="962.02" width="147.98" height="93.93" as="geometry" />
        </mxCell>
        <mxCell id="da2mFbJtw7ZfNC7TPq2f-243" style="edgeStyle=orthogonalEdgeStyle;rounded=0;orthogonalLoop=1;jettySize=auto;html=1;exitX=1;exitY=0.5;exitDx=0;exitDy=0;entryX=0.586;entryY=1.01;entryDx=0;entryDy=0;entryPerimeter=0;strokeColor=#FF3333;" parent="AGjHTBhYZpKcEaoJQLyZ-2" source="da2mFbJtw7ZfNC7TPq2f-226" target="da2mFbJtw7ZfNC7TPq2f-240" edge="1" treatAsSingle="0">
          <mxGeometry relative="1" as="geometry" />
        </mxCell>
        <mxCell id="da2mFbJtw7ZfNC7TPq2f-244" value="Storage" style="text;html=1;align=center;verticalAlign=middle;resizable=0;points=[];labelBackgroundColor=#ffffff;" parent="da2mFbJtw7ZfNC7TPq2f-243" vertex="1" connectable="0">
          <mxGeometry x="-0.104" y="1" relative="1" as="geometry">
            <mxPoint x="1" as="offset" />
          </mxGeometry>
        </mxCell>
      </root>
    </mxGraphModel>
  </diagram>
</mxfile>
